<svg id="Layer_1" xmlns="http://www.w3.org/2000/svg" viewBox="0 0 205 265"><style>.st20{fill:#f2e91a}.st21{fill:#a23f40}.st22{fill:#59595c}.st23{fill:#257da2}.st24{fill:#3e6982}.st25{fill:#b8e1ea}.st26{fill:#85d1e7}.st27{fill:#08a}.st28{fill:#28495d}.st29{opacity:.3;fill:#f2e91a}</style><path class="st20" d="M64.1 22.4s1.9-5.5-8.8-7.1-8.8 6.6-8.8 6.6l17.6.5z"/><path class="st21" d="M79.1 22.4s1.9-5.5-8.8-7.1-8.8 6.6-8.8 6.6l17.6.5z"/><path class="st20" d="M127.9 22.4s-1.9-5.5 8.8-7.1c10.7-1.6 8.8 6.6 8.8 6.6l-17.6.5z"/><path class="st21" d="M112.8 22.4s-1.9-5.5 8.8-7.1 8.8 6.6 8.8 6.6l-17.6.5z"/><path class="st22" d="M124.8 234c0 6.3 5 11.4 11.1 11.4S147 240.3 147 234v-44.5c0-6.3-5-11.4-11.1-11.4s-11.1 5.1-11.1 11.4V234zm-57.7 0c0 6.3-5 11.4-11.1 11.4s-11-5.2-11-11.4v-44.5c0-6.3 5-11.4 11.1-11.4s11.1 5.1 11.1 11.4V234z"/><path class="st23" d="M47.6 84.7h96.7v-49H47.6z"/><path class="st24" d="M169.7 124.8l-17.4 1.7v-47c8-12.9-6.8-61.3-6.8-61.3H46.6s-14.9 48.4-6.9 61.3v47l-17.4-1.7s-9.6 10.5 0 13.6c1.7.5 7.3.9 15.4 1.1.7 0 1.4 0 2.1.1v21.7c-.8.6-1.5 1.2-2.1 1.8-5.1 5.6 0 69.2 0 69.2h116.6s5.1-63.7 0-69.2c-.6-.7-1.3-1.3-2.1-1.8v-21.7c.7 0 1.4 0 2.1-.1 8.1-.2 13.7-.6 15.4-1.1 9.5-3.2 0-13.6 0-13.6zM52.1 25.4h87.8l3.9 10.2h.6v49h-.6v48.8H48.2V83.3l-.6-.7V35.7h.6l3.9-10.3zM124 227H67.9v-9.3H124v9.3zm21.8-15H46.1v-69.2h99.6V212z"/><path class="st25" d="M96.2 84.7h-.5L75.9 86l-27.7-3.4v50.8h95.6V84.7z"/><path class="st26" d="M96.2 84.7H71.7l-23.5-2.1 47.5 50.8h48.1V82.6l-15.6 2.1zm0-49h48.1l-4.5-10.3H52.1l-4.5 10.3h48.1z"/><path class="st23" d="M96.2 142.8H46.1V212h99.7v-69.2z"/><path class="st27" d="M96.1 142.8H68.4V212h55.1v-69.2z"/><path class="st28" d="M95.7 217.7H67.9v9.3H124v-9.3H96.2z"/><circle class="st29" cx="56.8" cy="226.7" r="23.6"/><circle class="st20" cx="56.8" cy="219.1" r="6.7"/><circle class="st29" cx="135.1" cy="226.7" r="23.6"/><circle class="st20" cx="135.1" cy="219.1" r="6.7"/></svg>