<svg id="Layer_1" xmlns="http://www.w3.org/2000/svg" viewBox="0 0 205 265"><style>.st10{fill:#e4808a}.st11{fill:#fff}</style><path class="st10" d="M152.8 104.9c0 30.9-55.9 103.1-55.9 103.1S41 135.8 41 104.9 66 49 96.9 49s55.9 25.1 55.9 55.9z"/><circle class="st11" cx="97.6" cy="104" r="45.2"/><path class="st0" d="M78.6 105.7h-1.9c-1.5 0-2.6-.7-3.3-2-.6-1.2-.4-3 .7-4.2 1.7-1.7 3.3-3.4 5-5.1 5.5-5.6 11-11.2 16.4-16.8.2-.3.5-.5.8-.7 1.5-1.2 3.5-1 4.9.4 2.1 2.1 4.2 4.3 6.3 6.4 5.1 5.3 10.3 10.5 15.4 15.8 1.8 1.8 1.5 4.6-.6 5.8-.6.3-1.3.4-1.9.5-.6.1-1.2 0-1.9 0v14.7c0 2.6-1.9 4.5-4.5 4.5H83.4c-2.8 0-4.6-1.9-4.6-4.6v-13.9c-.2-.4-.2-.6-.2-.8zm16.1-2.5h-4.5c-1.2 0-2.1.9-2.1 2.1v3.2c0 1.2.9 2.1 2.1 2.1h4.6v4.4c0 1.3.9 2.2 2.2 2.3h3c1.3 0 2.2-.9 2.2-2.3v-4.5h4.5c1.2 0 2.1-.9 2.2-2.1v-3.2c0-1.2-.9-2.1-2.2-2.1h-4.5v-4.4c0-1.5-.9-2.4-2.4-2.4h-2.6c-1.6 0-2.5.8-2.5 2.5v4.4z"/></svg>