<svg id="Layer_1" xmlns="http://www.w3.org/2000/svg" viewBox="0 0 170 140"><style>.st0{fill:#da333e}.st1{fill:none}.st2{fill:#ffd45b;stroke:#ffd45b;stroke-width:.75;stroke-miterlimit:10}.st3,.st4{fill-rule:evenodd;clip-rule:evenodd;fill:#da333e}.st4{fill:#ffd45b}.st5{fill:#176c93}.st5,.st6{fill-rule:evenodd;clip-rule:evenodd}</style><path class="st0" d="M108 70.7c3.9-6.3 6.9-13.7 8.5-21.9 2.9-14.6.8-28.5-4.8-38.8-9.1 7.4-16.3 19.6-19.1 34.1-1.2 6-1.5 11.9-1.1 17.6H69.8c.4-5.7.1-11.6-1.1-17.6-2.9-14.6-10-26.7-19.1-34.1-5.6 10.3-7.7 24.3-4.8 38.8 1.6 8.2 4.6 15.7 8.5 21.9l-8.8 50c-1 5.9 3 10.7 9 10.7h54.3c6 0 10-4.8 9-10.7l-8.8-50zM72.5 97.4h-8.2V86.5h8.2v10.9zm12.2 16.3h-8.2v-10.9h8.2v10.9zM97 97.4h-8.2V86.5H97v10.9zm0 0"/><path class="st1" d="M43.5 9.9H118v121.8H43.5z"/><path class="st2" d="M92.6 44.1c-1.2 6-1.5 11.9-1.1 17.6H69.8c.4-5.7.1-11.6-1.1-17.6-2.9-14.6-10-26.7-19.1-34.1-5.6 10.3-7.7 24.3-4.8 38.8.1.6.3 1.2.4 1.8l43.6 36.5v-.7H97V94l17.7 14.8-6.7-38.1c3.9-6.3 6.9-13.7 8.5-21.9 2.9-14.6.8-28.5-4.8-38.8-9 7.4-16.2 19.5-19.1 34.1z"/><path class="st3" d="M29.7 25.6c-1.9-.1-2.8.1-3.9.7-1.5.7-2.4 2.2-3.2 4.1-1.1-2-1.8-3.4-3.5-4.2-1-.5-2-.8-4.1-.5-1.7.4-3.4 1.6-3.8 4.4-.3 1-.1 3.1 1.3 5.2.4.6.9 1.5 1.6 2.5 1.4 1.9 3.2 4.1 4.2 5.6 2.4 3.8 2.8 4.4 3.5 6.1.1.2.7 2 .8 2.2.7-3.2 3.4-7.7 6.7-11.6 3.4-4 5.9-8.5 4.2-11.7-.8-1.5-2.2-2.3-3.8-2.8z"/><path class="st4" d="M155.2 61c-.9 0-1.3.1-1.9.3-.7.4-1.1 1.1-1.5 2-.5-1-.9-1.6-1.7-2-.5-.2-1-.4-2-.2-.8.2-1.6.8-1.8 2.1-.1.5 0 1.5.6 2.5.2.3.4.7.8 1.2.7.9 1.6 2 2 2.7 1.2 1.8 1.3 2.1 1.7 2.9.1.1.3 1 .4 1.1.3-1.5 1.6-3.7 3.2-5.6 1.6-1.9 2.8-4.1 2-5.6-.4-.8-1-1.2-1.8-1.4z"/><path class="st5" d="M142.2 84.6c-1.6-.1-2.4.1-3.4.6-1.3.6-2.1 1.9-2.8 3.6-1-1.7-1.6-2.9-3-3.6-.9-.4-1.8-.7-3.6-.4-1.4.3-3 1.4-3.3 3.8-.2.9-.1 2.7 1.1 4.5.4.5.8 1.3 1.4 2.1 1.2 1.6 2.8 3.6 3.6 4.9 2.1 3.3 2.4 3.8 3 5.3.1.2.6 1.7.7 1.9.6-2.8 2.9-6.7 5.8-10 2.9-3.4 5.1-7.4 3.6-10.1-.5-1.5-1.6-2.3-3.1-2.6z"/><path class="st1" d="M15.9 28.3h21.8v24.8H15.9z"/></svg>