<svg id="Layer_1" xmlns="http://www.w3.org/2000/svg" viewBox="0 0 170 140"><style>.st0{fill:#da333e}.st1{fill:#176c93}.st2{fill:#ffce3f}</style><path class="st0" d="M53.1 77.6c-.6-2.1-1.2-4.2-1.6-6.3-.5-2.5-1.6-7.5.2-9.9 2.1-2.9 5.2-2.3 9.5-.5 2.7 1.1 9.2 2.8 14.9-1.4 1.8-1.4 3.2-3.2 4.6-5 1.1-1.5 2.2-3.8 4.5-3 4.9 1.7-.5 10.7-2.3 12.9-4.5 5.6-11.4 8.5-18.5 9 .4 2.1.4 3.1.4 3.1l-11.7 1.1zM53.4 79.6L64.8 78l.7 1.6c1.9-.2 12.5-1.2 14.5.6 2.3 2 9.7 15.2 9.9 17.1.1.8-.2 2.3-.2 2.3s1.1.7 1.9.2c.8-.5 2.9-1.9 3.2-2.3s1.3-.4 1.6 0 .8 1.5.8 1.5l-11 6.4S77 86 75.8 85.9c-1.2-.2-12.8 1-12.8 1s4 19.8 3.9 25.3c-.2 1.4-.4 2-.4 2h6.2s1.1 2.3.8 2.8c-.4.4-13.2 1.5-13.2 1.5s-4.2-30.8-6.9-38.9zM49.8 54.4s2.4 3.4 7 1.4 3.2-7 2.8-7.6c-3.5 2.3-9.8 6.2-9.8 6.2z"/><path class="st1" d="M48.9 53.4s12.1-7.5 12.6-7.9c1.2-.9.2-2.6-2.1-.9-1.6 1.1-1.8 1-1.8 1s-1.9-1.6-3.8-1.5c-2.2.1-5.4 1.6-5.7 5.5-.3 1.1-.1 3 .8 3.8z"/><path class="st2" d="M113 27.1c-4.5-4.8-7-5.5-14-3.8l-3.5-.2c-3.4 2.4-5 4.2-7.5 8.8-2.5 4.4-5 9.4-4.2 12.1.1.2 2.7 3 6.8 6.5 4.2 3.4 6.3 5.4 6.7 6.5l14.3-2.3c1.5-.3 8-11 7.7-11.9-2.5-7.6-3.6-12.8-6.3-15.7zM121.4 14.6l-.2-.3c-.1-.1 0-1.7-.5-3.1-.2-.7-.6-.4-.8-1.1-.8-.6-1.6-.3-3.1.5-1.5.7-3.5 1.8-4.6 3.2-.3.4-.2 1.2-.3 1.9l-.3 1.9.8 1.1c1.7 1 3.6.5 3.9.7.7.3 1.9.1 3.1-.4 1.1-.5 1.5-.6 2.3-1.6.8-1.1.5-2.2-.3-2.8zM80.2 28.3l-.1-.2c-.1-.1.1-1.4-.2-2.5-.1-.6-.5-.3-.6-.8-.7-.4-1.4 0-2.8.9-1.4.8-3.3 2.1-4.3 3.4-.3.4-.3 1-.4 1.7l-.4 1.7.6.8c1.5.6 3.3-.2 3.5-.1.6.2 1.8-.3 2.8-.9 1.1-.6 1.4-.8 2.2-1.7.6-1 .3-1.9-.3-2.3z"/><path class="st1" d="M18.8 63.6c-1.6 8.6-2.9 9.9-11.5 11.5 8.6 1.6 9.9 2.9 11.5 11.5 1.6-8.6 2.9-9.9 11.5-11.5-8.6-1.6-9.9-2.9-11.5-11.5zm0 0M57.6 9c-.9 4.8-1.6 5.5-6.4 6.4 4.8.9 5.5 1.6 6.4 6.4.9-4.8 1.6-5.5 6.4-6.4-4.7-.9-5.5-1.6-6.4-6.4zm0 0"/><path class="st2" d="M38.4 131l32.9-30.2s10.4-21.2 15-23.8c4.6-2.6 25.6-10.4 28.8-12.2 3.2-1.8 4.8-3.6 6.2-5.4 1.4-1.8 22.5-46.2 22.5-46.2h18.1V130l-123.5 1z"/></svg>