<svg id="Layer_1" xmlns="http://www.w3.org/2000/svg" viewBox="0 0 72 72"><style>.st0{fill:#7dc8f5}.st1{fill:#fff}</style><path class="st0" d="M36 .5C16.4.5.5 16.4.5 36S16.4 71.5 36 71.5 71.5 55.6 71.5 36 55.6.5 36 .5zm-6.5 47.6h-5.9V30.4h5.9v17.7zm-3-20c-1.9 0-3.2-1.4-3.2-3.1 0-1.8 1.3-3.1 3.3-3.1s3.3 1.3 3.2 3.1c0 1.7-1.2 3.1-3.3 3.1zm24.2 20h-5.9v-9.5c0-2.4-.8-4-3-4-1.6 0-2.6 1.1-3 2.1-.2.4-.2.9-.2 1.4V48h-5.9s.1-16 0-17.7h5.9v2.5c.8-1.2 2.2-2.9 5.3-2.9 3.9.1 6.8 2.6 6.8 8.1v10.1z"/><path class="st1" d="M23.6 30.4h5.9v17.7h-5.9zm3-8.5c-2 0-3.3 1.3-3.3 3.1 0 1.7 1.3 3.1 3.2 3.1 2.1 0 3.3-1.4 3.3-3.1.1-1.8-1.2-3.1-3.2-3.1zm17.3 8c-3.1 0-4.5 1.7-5.3 2.9v-2.5h-5.9c.1 1.7 0 17.7 0 17.7h5.9v-9.9c0-.5 0-1 .2-1.4.4-1 1.4-2.1 3-2.1 2.2 0 3 1.6 3 4v9.5h5.9V38c0-5.5-2.9-8-6.8-8.1z"/></svg>