<svg id="Layer_1" xmlns="http://www.w3.org/2000/svg" viewBox="0 0 612 318"><style>.st0{fill:none}.st1{fill:#010101}.st2{fill:#7fd0dc}.st3{fill:#5fc7ce}.st4{fill:#3eb4e6}.st5{fill:#13bcd1}.st6{fill:#0c8ea7}.st7{fill:#7a499c}.st8{fill:#db1869}.st9{fill:#ef4030}.st10{fill:#f37123}.st11{fill:#fba81b}.st12{fill:#a3cd3a}.st13{fill:#078f70}.st14{fill:#d4196d}</style><path class="st0" d="M337.7 151.7c-2.2 0-4 .8-5.5 2.4-1.5 1.6-2.4 3.8-2.7 6.6h15.7v-.4c-.2-2.7-.9-4.8-2.2-6.3-1.3-1.6-3.1-2.3-5.3-2.3zm31.4 0c-2.2 0-4 .8-5.5 2.4-1.5 1.6-2.4 3.8-2.7 6.6h15.7v-.4c-.2-2.7-.9-4.8-2.2-6.3-1.3-1.6-3-2.3-5.3-2.3zm-220.2 1.1c-2.9-.1-5.9 0-8.8.1h-.2c-3 .1-6.1.4-9.1.7h-.2c-1.4.2-2.8.3-4.3.5.3 2.1.8 4.4 1.4 6.7 0 .1.1.2.1.3 1.1 4 2.8 7.6 5.1 9.3.1 0 .1.1.2.1.6.4 1.1.7 1.8.8 1.9.4 4.1.6 6.5.6h.2c3 0 6.3-.3 9.2-1 .1 0 .1 0 .2-.1 4.9-1.1 8.9-2.9 9.7-5.2 1.4-4.5 2.1-9.2 2.4-12.1-1.7-.2-3.4-.4-5-.5h-.2c-2.9-.2-5.7-.4-8.6-.4-.3.2-.3.2-.4.2zm.1 11.7c0 1.6-1.3 2.9-2.9 2.9-1.6 0-2.9-1.3-2.9-2.9v-3.8c0-1.6 1.3-2.9 2.9-2.9 1.6 0 2.9 1.3 2.9 2.9v3.8zm155.4-12.7c-2.6 0-4.7 1-6.1 3-1.5 2-2.2 5-2.2 9 0 3.5.7 6.3 2.2 8.3 1.5 2 3.5 3 6.1 3 3.4 0 5.9-1.5 7.5-4.6v-14.3c-1.7-2.9-4.2-4.4-7.5-4.4zm117 14.1c-1.9 1.5-2.9 3.3-2.9 5.4 0 1.9.8 3.5 2.3 4.9s3.5 2 5.8 2c2.9 0 5.5-.7 7.6-2 2.1-1.3 3.7-3.2 4.8-5.5v-7.5h-7.3c-4.5.1-7.9 1-10.3 2.7zm73.9-17.1c-2.6 0-4.9.7-6.7 2s-3.2 3.3-4 5.9v14.7c.8 2.2 2.1 3.8 4 5 1.8 1.2 4.1 1.8 6.7 1.8 3.2 0 5.7-1.3 7.5-3.8 1.8-2.6 2.7-6.3 2.7-11.2 0-4.5-.9-8-2.7-10.6-1.7-2.5-4.3-3.8-7.5-3.8zm-301.3 17c.3 1 1.3 1.9 2.7 2.7.1 0 .1.1.2.1 2 1.1 4.7 2 7.8 2.6h.2c2.7.5 5.7.8 8.5.8h.2c2.2 0 4.4-.2 6.2-.6 1.7-.4 3.1-1.8 4.3-3.7l2.9-7.4c.5-2.1 1-4.1 1.3-6.1-2.4-.3-4.9-.6-7.3-.8h-.2c-2.9-.2-5.7-.4-8.6-.5h-.2c-2.9-.1-5.9-.1-8.8 0h-.2c-3 .1-6 .3-9 .6h-.2c-.7.1-1.4.1-2.1.2.1 1 .3 2.3.5 3.7 0 .1 0 .2.1.4.2 2.4.8 5.2 1.7 8zm13.4-5.1c0-1.6 1.3-2.9 2.9-2.9 1.6 0 2.9 1.3 2.9 2.9v3.8c0 1.6-1.3 2.9-2.9 2.9-1.6 0-2.9-1.3-2.9-2.9v-3.8zm255.4-11.9c-2.6 0-4.9.7-6.7 2-1.8 1.4-3.2 3.3-4 5.9v14.7c.8 2.2 2.1 3.8 4 5s4.1 1.8 6.7 1.8c3.2 0 5.7-1.3 7.5-3.8s2.7-6.3 2.7-11.2c0-4.5-.9-8-2.7-10.6-1.8-2.5-4.3-3.8-7.5-3.8z"/><path class="st1" d="M312 151.3c-2.1-2.7-5.1-4.1-9-4.1-3.7 0-6.7 1.4-9 4.3s-3.4 6.8-3.4 11.7c0 5.1 1.1 9.1 3.4 12.1s5.2 4.4 8.9 4.4 6.6-1.2 8.8-3.7v2.7c0 2.7-.7 4.7-2.2 6.2-1.5 1.5-3.5 2.2-6.1 2.2-3.3 0-6.1-1.4-8.4-4.3l-2.8 3.2c1.1 1.7 2.8 3 5 4s4.4 1.5 6.6 1.5c4.1 0 7.3-1.2 9.7-3.5 2.4-2.3 3.6-5.5 3.6-9.6v-30.6h-4.9l-.2 3.5zm-.2 19.3c-1.6 3.1-4.1 4.6-7.5 4.6-2.6 0-4.6-1-6.1-3s-2.2-4.8-2.2-8.3c0-4 .7-7 2.2-9 1.5-2 3.5-3 6.1-3 3.3 0 5.8 1.5 7.4 4.5v14.2zm25.9-23.3c-2.5 0-4.8.7-6.9 2.1s-3.8 3.3-5 5.7c-1.2 2.4-1.8 5.2-1.8 8.3v1c0 4.7 1.3 8.4 4 11.2 2.7 2.8 6.1 4.2 10.4 4.2 5.3 0 9.2-2 11.8-6.1l-3.3-2.6c-1 1.3-2.1 2.3-3.5 3.1-1.3.8-2.9 1.2-4.8 1.2-2.7 0-4.9-1-6.6-2.9-1.7-1.9-2.6-4.4-2.7-7.5h21.3v-2.2c0-5-1.1-8.9-3.4-11.5-2.3-2.7-5.5-4-9.5-4zm7.5 13.4h-15.7c.3-2.8 1.3-5.1 2.7-6.6 1.5-1.6 3.3-2.4 5.5-2.4s4 .7 5.3 2.2c1.3 1.5 2 3.6 2.2 6.3v.5zm23.9-13.4c-2.5 0-4.8.7-6.9 2.1s-3.8 3.3-5 5.7c-1.2 2.4-1.8 5.2-1.8 8.3v1c0 4.7 1.3 8.4 4 11.2 2.7 2.8 6.1 4.2 10.4 4.2 5.3 0 9.2-2 11.8-6.1l-3.3-2.6c-1 1.3-2.1 2.3-3.5 3.1-1.3.8-2.9 1.2-4.8 1.2-2.7 0-4.9-1-6.6-2.9-1.7-1.9-2.6-4.4-2.7-7.5H382v-2.2c0-5-1.1-8.9-3.4-11.5-2.2-2.7-5.4-4-9.5-4zm7.6 13.4H361c.3-2.8 1.3-5.1 2.7-6.6 1.5-1.6 3.3-2.4 5.5-2.4s4 .7 5.3 2.2c1.3 1.5 2 3.6 2.2 6.3v.5zm36.1-12.9h-6.5l-9.8 10.4-2.9 3.4v-26.9h-5.3v44.5h5.3v-11l3.4-3.5 10.9 14.5h6.3l-13.6-18.3zm27.7 9.1c-.1-3.1-1.1-5.5-3.1-7.1s-4.7-2.5-8.1-2.5c-3.2 0-6 .9-8.2 2.7-2.2 1.8-3.4 3.9-3.4 6.5l1.6.1c0-2.2 1-4 2.9-5.5s4.3-2.2 7.2-2.2c3.1 0 5.4.7 7.1 2.2 1.7 1.5 2.5 3.5 2.5 6.1v4.6h-7.7c-4.3 0-7.8.9-10.4 2.7-2.6 1.7-3.9 4-3.9 6.9 0 2.5.9 4.6 2.7 6.2s4.1 2.4 7 2.4c2.7 0 5.1-.6 7.3-1.7 2.1-1.1 3.8-2.7 5.1-4.7 0 2.5.2 4.4.6 5.7h1.8v-.3c-.5-1.2-.8-3.6-.8-7v-15.1zm-1.5 13.8c-1.1 2.4-2.7 4.2-4.8 5.5-2.1 1.3-4.6 2-7.6 2-2.3 0-4.3-.7-5.8-2s-2.3-3-2.3-4.9c0-2.2 1-4 2.9-5.4 2.4-1.8 5.8-2.7 10.3-2.7h7.3v7.5zm23.8-23.4c-2.3 0-4.4.5-6.3 1.6-1.8 1.1-3.3 2.6-4.4 4.6v-5.6h-1.6v43.4h1.6v-16.9c1 1.7 2.5 3 4.4 4 1.9 1 4 1.5 6.4 1.5 3.6 0 6.5-1.4 8.6-4.3 2.1-2.9 3.2-6.8 3.2-11.7v-.5c0-5.1-1.1-9-3.2-11.8-2.2-2.9-5.1-4.3-8.7-4.3zm7.5 27.1c-1.8 2.6-4.3 3.8-7.5 3.8-2.6 0-4.9-.6-6.7-1.8s-3.2-2.9-4-5v-14.7c.8-2.6 2.1-4.5 4-5.9 1.8-1.4 4.1-2 6.7-2 3.2 0 5.7 1.3 7.5 3.8 1.8 2.5 2.7 6.1 2.7 10.6 0 4.9-.9 8.7-2.7 11.2zm25-27.1c-2.3 0-4.4.5-6.3 1.6-1.8 1.1-3.3 2.6-4.4 4.6v-5.6H483v43.4h1.6v-16.9c1 1.7 2.5 3 4.4 4 1.9 1 4 1.5 6.4 1.5 3.6 0 6.5-1.4 8.6-4.3s3.2-6.8 3.2-11.7v-.5c0-5.1-1.1-9-3.2-11.8s-5-4.3-8.7-4.3zm7.6 27.1c-1.8 2.6-4.3 3.8-7.5 3.8-2.6 0-4.9-.6-6.7-1.8-1.8-1.2-3.2-2.9-4-5v-14.7c.8-2.6 2.1-4.5 4-5.9s4.1-2 6.7-2c3.2 0 5.7 1.3 7.5 3.8 1.8 2.5 2.7 6.1 2.7 10.6-.1 4.9-1 8.7-2.7 11.2zm32.6-6.9c-.7-1.1-1.8-2.1-3.3-2.9-1.5-.8-3.6-1.5-6.1-2.1-2.6-.6-4.6-1.2-5.9-1.9s-2.3-1.4-2.9-2.2-.9-1.9-.9-3.3c0-1.8.8-3.3 2.4-4.5 1.6-1.2 3.8-1.8 6.5-1.8 2.9 0 5.2.7 7 2.1 1.8 1.4 2.7 3.2 2.7 5.3h1.6c0-2.7-1-4.9-3.1-6.5-2-1.6-4.8-2.4-8.2-2.4-3.1 0-5.6.7-7.6 2.2-1.9 1.5-2.9 3.4-2.9 5.7 0 2.3.8 4.1 2.3 5.4s4.2 2.4 8.2 3.2c6.5 1.4 9.7 4 9.7 7.8 0 1.9-.9 3.4-2.6 4.7-1.7 1.3-4 2-6.8 2-3.1 0-5.5-.6-7.3-1.8s-2.8-2.9-2.9-5.1h-1.6c0 2.5 1.1 4.6 3.2 6.2s5 2.4 8.5 2.4c3.3 0 5.9-.8 8-2.3s3-3.5 3-6c.1-1.7-.3-3.1-1-4.2z"/><path class="st2" d="M234.6 195.1c-3.8-1.6-12.6-7.1-17.4-11.8-1.4.1-2.8.2-4.3.2-11.9 0-27-3.7-30.2-14.1-.6-1.9-1.1-4-1.6-6.2-2.5-.5-5.3-.4-8 .1-.5 2.1-1 4.1-1.6 6-3.2 10.4-18.3 14.1-30.3 14.1-3.5 0-6.7-.3-9.3-.9-3.4-.8-6.4-2.6-9-5.5-8.2-.3-16.4.7-17.7 1.3-1.5.7-5.8 4-4.6 8.2 1.2 4.2 5 8.9 12.1 8.8 5.7-.1 15.3-5.2 19.6-7.8 3-1.4 9-1.6 11.9.7 2.9 2.2 4 6.2 1.3 12.7-2.7 6.5-26.9 28.4-30.7 34.3-3.8 5.9-8.9 19.4 3.7 24.6 13.5 5.6 24.9-6.4 29.9-27.2 5.7-23.6 8.4-27.5 16.5-28.3 5.9-.6 15.9 1.2 16.8 10.6 1 9.4-1.2 32.7 16.6 28.3 15-3.7 1.6-24.2.9-31.7-.6-7.5 2.3-14.9 8.7-17.4 4.2-1.6 8.6-1 19.6 4 11 4.9 17.2 9.1 19.4 5.9 2.7-3.2-6.2-6.2-12.3-8.9zm-95.2-69.2c2.5 5.8 1.9 9.9.8 12.4 9.9 0 19.8 1 29.4 2.9 2.7.5 4.9 2.4 5.7 4.8 1.2-.1 2.4-.1 3.6 0 .8-2.4 3-4.3 5.7-4.8 9.9-1.9 20-2.9 30.1-2.9 1.9 0 3.9 0 5.8.1.3-.4.7-.8 1.1-1.1 9.1-7.2 27.3-14 33-16.7 5.7-2.7 15.3-11.3 11-18.6-3.3-5.7-9.9-4.9-17.9.5-7.6 5.1-19.7 17.2-27.7 24.1-6.3 5.4-23.9 6.5-27.7-1-3.8-7.5.2-17.2 8.3-25 9.6-9.2 11-18.6 10.5-22.8-.5-4.3-7.4-8.5-12.9-5.9-4.9 2.4-14.2 11.9-16.1 23.3-1.8 10.9-.6 19.2-9.5 27.1-4.6 4.1-9.5-1.4-10.7-3-3.5-4.5-4.1-25-7.6-14.3-3 9.1-4.1 11.1-11.3 8.9-4.2-1.3-6.8-3-11.5-11.5C126.9 94 121 77.2 114.2 72c-3.1-2.4-9.8-4.9-14.9 1.6s-1.4 15.1 4.3 21c5.8 6.1 31 20 35.8 31.3z"/><path class="st2" d="M159.1 90.8c1.1-1.3 2.3-4.6-.5-7.1 0 0-2.1-2.8-4.6-1.1-1.6 1.1-2.2 5.7 0 7.7 2.2 2.1 4 1.8 5.1.5z"/><ellipse transform="rotate(-51.611 171.63 69.143)" class="st2" cx="171.6" cy="69.1" rx="8.9" ry="6.6"/><ellipse transform="rotate(-47.164 96.865 130.813)" class="st2" cx="96.9" cy="130.8" rx="11.7" ry="13.8"/><ellipse transform="rotate(-51.618 207.216 248.12)" class="st2" cx="207.2" cy="248.1" rx="5" ry="3.7"/><path class="st2" d="M243.1 154.8c-.6 2.3-2.1 4.2-4.2 5.1-.8 3.6-1.8 6.8-3 9.7 1 .3 2 .5 3 .7 9.6 1.8 18.3-.6 18.1-7.5-.3-5.9-5.8-8.3-13.9-8zm27.3 52.8c-5.9-1.5-11.1-1.9-11.8-.6-.6 1.3.3 3.8 6.8 7.6 6.6 3.8 8.8 2.2 10 .3 1.2-2 1-5.9-5-7.3z"/><path class="st3" d="M210.3 167.3c1.6 0 2.9-1.3 2.9-2.9v-3.8c0-1.6-1.3-2.9-2.9-2.9-1.6 0-2.9 1.3-2.9 2.9v3.8c0 1.7 1.3 2.9 2.9 2.9zm-64.1-9.4c-1.6 0-2.9 1.3-2.9 2.9v3.8c0 1.6 1.3 2.9 2.9 2.9 1.6 0 2.9-1.3 2.9-2.9v-3.8c-.1-1.7-1.3-2.9-2.9-2.9z"/><path class="st4" d="M116.8 144.1c-.2 0-.3.1-.5.1-1.3.4-2 1.8-1.8 3.2.1.3.1.6.2.9.3 1.7.6 2.9.9 4.8.3 1.6 1.7 2.6 3.1 2.3.2 0 .4-.1.6-.1.1.8.3 1.7.5 2.7l5.9-14.9c-2.9.2-5.9.5-8.9 1z"/><path class="st5" d="M126.3 154.1c1.4-.2 2.8-.4 4.3-.5l4.4-11.1c-3 .1-6 .3-9 .5h-.2l-5.9 14.9c0 .1 0 .2.1.3.8 3.8 2 8.1 4.1 11.8l3.7-9.3c-.7-2.1-1.2-4.4-1.5-6.6z"/><path class="st6" d="M127.8 161.1c0-.1-.1-.2-.1-.3l-3.7 9.3c0 .1.1.1.1.2 1.6 2.7 3.6 5 6.3 6.3l2.5-6.2c-2.3-1.7-3.9-5.3-5.1-9.3zm3-7.5c3-.3 6-.6 9.1-.7l4.1-10.4c-2.9-.1-5.9-.1-8.8 0h-.2l-4.4 11.1h.2z"/><path class="st7" d="M134.8 171.4c-.6-.1-1.2-.4-1.8-.8-.1 0-.1-.1-.2-.1l-2.5 6.2c.1 0 .1.1.2.1.8.4 1.6.7 2.6.9 1.6.4 3.5.6 5.6.7l2.5-6.4c-2.3 0-4.5-.2-6.4-.6zm5.3-18.5c2.9-.1 5.9-.2 8.8-.1l3.9-9.8c-2.9-.2-5.7-.4-8.6-.5h-.2l-4.1 10.4h.2z"/><path class="st8" d="M141.5 172h-.2l-2.5 6.4h.2c.8 0 1.6.1 2.5.1 2.1 0 4.3-.1 6.4-.4l2.8-7c-3 .6-6.2.9-9.2.9zm7.6-19.2c2.9.1 5.8.2 8.6.4l3.7-9.3c-2.8-.4-5.6-.7-8.4-1h-.2l-3.9 9.8c.1.1.1.1.2.1z"/><path class="st9" d="M168.9 145.2c-2.4-.5-4.8-.9-7.3-1.2h-.2l-3.7 9.3h.2c1.7.1 3.4.3 5 .5-.3 2.8-1 7.6-2.4 12.1-.7 2.3-4.7 4.1-9.7 5.2-.1 0-.1 0-.2.1l-2.8 7h.2c3.4-.4 6.7-1.2 9.7-2.3l12-30.2c-.2-.3-.5-.4-.8-.5z"/><path class="st10" d="M170 145.6c-.1 0-.1-.1-.2-.1l-12 30.2c.1 0 .2-.1.2-.1 4.5-1.8 8.1-4.4 9.3-8.1.9-2.9 1.5-5.8 2-8.4 1.1-.4 2.7-.8 4.5-1.1l3.2-8.1c-2.3 0-4.5.3-6.3.7.2-.9.3-1.7.5-2.8.2-.7-.3-1.6-1.2-2.2z"/><path class="st11" d="M174 158.1c2.5-.4 5.5-.4 8.7.3l5.4-13.6c-.8.1-1.6.3-2.4.4-1.5.3-2.6 1.6-2.3 2.8.2 1.1.4 1.8.5 2.7-2.3-.5-4.6-.6-6.6-.6h-.2l-3.2 8.1c0-.1 0-.1.1-.1z"/><path class="st12" d="M182.9 158.4c.8.2 1.6.4 2.4.7.4 2.6 1.1 5.5 2 8.5.1.3.3.7.4 1l4.4-11.2c-.2-1.4-.4-2.7-.5-3.7.7-.1 1.4-.1 2.1-.2l4-10.1c-3.1.4-6.2.8-9.3 1.4h-.2l-5.4 13.6h.1z"/><path class="st13" d="M194 165.8c-.9-2.8-1.4-5.6-1.9-8 0-.1 0-.2-.1-.4l-4.4 11.2c0 .1.1.2.1.3 1.2 2.5 3.5 4.4 6.5 5.8l2.4-6.1c-1.3-.9-2.3-1.8-2.6-2.8zm-.2-12.3c3-.3 6-.5 9-.6l4.1-10.3c-3 .2-6.1.4-9.1.7h-.2l-4 10.1c.1.1.2.1.2.1z"/><path class="st5" d="M196.8 168.6c-.1 0-.1-.1-.2-.1l-2.4 6.1c.1 0 .1.1.2.1 2.3 1.1 5 2 7.8 2.6l2.4-6.1c-3.1-.6-5.8-1.5-7.8-2.6zm6.3-15.7c2.9-.1 5.9-.1 8.8 0l4.1-10.4c-3 0-5.9 0-8.9.2h-.2l-4.1 10.3c.1-.1.2-.1.3-.1z"/><path class="st6" d="M204.8 171.2h-.2l-2.4 6.1h.2c2.8.6 5.6.9 8.4 1l2.5-6.4c-2.8.1-5.8-.2-8.5-.7zm7.3-18.4c2.9.1 5.7.2 8.6.5l4.2-10.6c-2.9-.2-5.8-.3-8.7-.3h-.2l-4.1 10.4h.2z"/><path class="st14" d="M219.7 171.4c-1.8.4-4 .6-6.2.6h-.2l-2.5 6.4h2.4c2.5 0 4.8-.2 6.8-.5l4.1-10.3c-1.3 2-2.7 3.4-4.4 3.8zm1.2-18.1c2.4.2 4.9.5 7.3.8-.3 1.9-.7 4-1.3 6.1l6.6-16.7c-2.8-.3-5.6-.6-8.5-.8h-.2l-4.2 10.6h.3z"/><path class="st7" d="M224 167.6l-4.1 10.3h.2c.4-.1.8-.1 1.2-.2 9.3-2.1 12.6-14.8 13.8-22.4.2 0 .4.1.6.1 1.4.3 2.8-.8 3.1-2.3.4-2.3.7-3.4 1.1-5.7.3-1.6-.7-3.1-2.2-3.3-1.3-.2-2.7-.3-4-.5h-.2l-6.6 16.7-2.9 7.3z"/></svg>