<svg id="Слой_1" data-name="Слой 1" xmlns="http://www.w3.org/2000/svg" viewBox="0 0 512 426.68"><defs><style>.cls-1{fill:#44a2bc;}</style></defs><title>identity</title><path class="cls-1" d="M362.67,0H309.34A53.4,53.4,0,0,1,256,53.34,53.39,53.39,0,0,1,202.67,0H149.34L0,85.34,42.67,202.67l64-21.34V426.68H405.34V181.34l64,21.34L512,85.34Zm93.7,175.87-44.28-14.77L384,151.74v253.6H128V151.74l-28.08,9.36-44.3,14.77L26.19,94.94,155,21.34h29.44A74.69,74.69,0,0,0,256,74.67a74.67,74.67,0,0,0,71.56-53.34H357l128.81,73.6Z"/><path class="cls-1" d="M402,76c-15.2-15.2-34.18.86-54.26,17.85-16.95,14.34-38.38,34.33-60.34,56.3-20.2,20.2-39.08,40.34-53.17,56.7a18.71,18.71,0,0,0-3.41,5.92,18.52,18.52,0,0,0-2.62.43c-29.67,9.19-36.09,26.74-40.77,39.55-2.55,7-4.57,12.49-10.34,18.48A19.07,19.07,0,0,0,189,303.5c46.17,4.45,57.06-23.57,62.9-38.62.88-2.26,5.63-10.43,9.71-17a18.63,18.63,0,0,0,9.55-4.07c16.37-14.09,36.51-33,56.7-53.17C382.65,135.85,422.23,96.27,402,76ZM190.83,284.52c21.49-22.33,8.71-42.41,43-53l1.35,1.35,8.68,8.68C228.75,253.34,237.45,289,190.83,284.52ZM314.36,177.16c-20.75,20.75-40.27,39-55.66,52.21L257.35,228l-8.68-8.68c13.25-15.39,31.46-34.91,52.2-55.67,44.68-44.68,83.92-77.88,87.64-74.15S359,132.48,314.36,177.16Z"/></svg>