<svg width="158" height="127" viewBox="0 0 158 127" xmlns="http://www.w3.org/2000/svg"><title>F3678E80-2651-4791-BB88-F599A5FC0686</title><g fill="none" fill-rule="evenodd"><path fill="#FFCE3F" d="M34.008 105.563l-5.344-5.344 28.599-28.6 5.344 5.344z"/><path fill="#EFB82E" d="M28.662 121.595l5.344 5.344L73.294 87.65l-5.345-5.344z"/><path fill="#FFCE3F" d="M50.04 121.595l5.345 5.344L83.983 98.34l-5.344-5.345z"/><path fill="#ED3A4F" d="M94.671 39.551l-29.508 7.903-10.689 10.69 10.803 10.801 18.26-11.133z"/><path fill="#DB323E" d="M116.049 60.93l-18.26 11.134-11.133 18.259 10.803 10.804 10.688-10.688z"/><path fill="#F4F4F4" d="M114.267 19.956l-38.3 38.3 10.688 17.816 45.427-45.427z"/><path fill="#E5E5E5" d="M128.52 27.081L83.092 72.508l14.252 7.126 38.302-38.302z"/><path fill="#ED3A4F" d="M75.966 58.257l-10.69 10.69 10.69 10.687 8.907-1.78 1.783-8.908z"/><path fill="#DB323E" d="M97.342 79.633l-10.69 10.69-10.687-10.69 10.688-10.689z"/><path fill="#FFF" d="M119.613 41.335l-5.344 5.344-5.345-5.344 5.345-5.344z"/><path fill="#FFCE3F" d="M142.771 12.83l-28.504 7.126 10.69 10.689h7.125z"/><path fill="#EFB82E" d="M135.646 41.333l7.126-28.503-17.815 17.814z"/><path d="M51.773 13.787h-.89a.444.444 0 0 0 0 .89h.89a.445.445 0 1 0 0-.89M75.79 13.787h-8.45a.435.435 0 0 0-.038.002 2.655 2.655 0 0 0-.458-1.104 2.7 2.7 0 0 0-.757-.715 2.66 2.66 0 0 0-.974-.369c.002-.013.002-.025.002-.038v-8.45a.445.445 0 1 0-.888 0v8.488a2.617 2.617 0 0 0-1.104.457 2.7 2.7 0 0 0-.713.758 2.637 2.637 0 0 0-.37.973.435.435 0 0 0-.038-.002h-8.45a.445.445 0 1 0 0 .89h8.45a.435.435 0 0 0 .037-.002 2.655 2.655 0 0 0 .459 1.104 2.676 2.676 0 0 0 1.73 1.084l-.001.037v8.45a.444.444 0 1 0 .888 0V16.9a.459.459 0 0 0-.001-.037 2.637 2.637 0 0 0 1.105-.458 2.676 2.676 0 0 0 1.084-1.73l.037.002h8.45a.445.445 0 1 0 0-.89M78.458 13.787h-.89a.444.444 0 0 0 0 .89h.89a.445.445 0 1 0 0-.89M64.67 26.685a.445.445 0 0 0-.444.445v.889a.445.445 0 1 0 .89 0v-.89a.445.445 0 0 0-.445-.444M64.67 1.78a.445.445 0 0 0 .446-.446v-.89a.444.444 0 0 0-.89 0v.89c0 .246.199.445.445.445" fill="#FFFFD8"/><path d="M63.124 12.058l-.025-.028-7.862-7.862a.444.444 0 1 0-.629.629l7.862 7.862a.333.333 0 0 0 .028.025c.172-.242.384-.453.626-.626M66.218 16.405c.008.01.016.02.025.028l7.862 7.862a.443.443 0 0 0 .63 0 .444.444 0 0 0 0-.629l-7.863-7.862-.028-.025a2.676 2.676 0 0 1-.626.626M62.497 15.78l-.028.024-7.862 7.862a.446.446 0 0 0 .315.76.443.443 0 0 0 .314-.13l7.862-7.863c.01-.009.017-.019.025-.028a2.676 2.676 0 0 1-.626-.626M66.844 12.685c.01-.008.02-.016.028-.025l7.862-7.862a.444.444 0 1 0-.629-.629l-7.862 7.862a.333.333 0 0 0-.025.028c.242.172.453.384.626.626" fill="#FFCF00"/><path d="M62.035 14.842l-6.574 2.723a.445.445 0 1 0 .34.822l6.575-2.723.033-.016a2.68 2.68 0 0 1-.339-.819.496.496 0 0 0-.035.013M67.306 13.622l6.574-2.723a.445.445 0 1 0-.34-.822L66.965 12.8l-.033.016c.156.248.271.524.34.818a.242.242 0 0 0 .034-.012M66.966 15.664l6.574 2.723a.442.442 0 0 0 .581-.241.443.443 0 0 0-.24-.58l-6.574-2.724-.035-.012c-.068.294-.184.57-.34.818.01.006.023.01.034.016M62.376 12.8l-6.574-2.723a.445.445 0 0 0-.341.822l6.575 2.723.035.012c.067-.294.183-.57.339-.818a.354.354 0 0 0-.034-.016M64.06 11.597l-2.722-6.574a.445.445 0 1 0-.822.34l2.723 6.574a.36.36 0 0 0 .017.034c.248-.156.523-.273.817-.34a.242.242 0 0 0-.012-.034M65.281 16.867l2.723 6.575a.446.446 0 0 0 .581.24.445.445 0 0 0 .241-.58l-2.723-6.576-.016-.032a2.632 2.632 0 0 1-.819.338.496.496 0 0 0 .013.035M63.239 16.527L60.516 23.1a.445.445 0 0 0 .822.34l2.723-6.574c.005-.011.008-.023.012-.035a2.637 2.637 0 0 1-.818-.34l-.016.035M66.103 11.937l2.723-6.574a.445.445 0 0 0-.821-.341l-2.724 6.575c-.005.01-.008.023-.012.035.294.067.569.183.817.338.006-.011.012-.021.017-.033" fill="#FF7400"/><path d="M141.391 72.674h-.518a.26.26 0 0 0 0 .518h.518a.26.26 0 0 0 0-.518M155.38 72.674h-4.944a1.542 1.542 0 0 0-.215-.567l-.05-.075a1.58 1.58 0 0 0-.443-.416 1.553 1.553 0 0 0-.476-.198l-.09-.017.001-.022v-4.922a.26.26 0 0 0-.518 0v4.922l.001.022a1.563 1.563 0 0 0-1.275 1.274l-.022-.001h-4.922a.26.26 0 0 0 0 .518h4.922l.022-.001.018.09a1.556 1.556 0 0 0 1.257 1.185v4.944a.258.258 0 1 0 .518 0v-4.923l-.002-.021.09-.018a1.528 1.528 0 0 0 .553-.25c.141-.1.264-.223.365-.364l.051-.076a1.532 1.532 0 0 0 .215-.567.162.162 0 0 0 .022 0h4.922a.26.26 0 0 0 0-.517M156.935 72.674h-.518a.26.26 0 0 0 0 .518h.518a.26.26 0 0 0 0-.518M148.904 80.186a.26.26 0 0 0-.259.26v.517a.26.26 0 0 0 .518 0v-.518a.26.26 0 0 0-.259-.259M148.904 65.68a.26.26 0 0 0 .259-.26v-.518a.26.26 0 0 0-.518 0v.518a.26.26 0 0 0 .259.26" fill="#FFFFD8"/><path d="M148.003 71.667l-.015-.016-4.58-4.58a.259.259 0 1 0-.365.367l4.579 4.579.016.015a1.58 1.58 0 0 1 .365-.365M149.805 74.199l.015.016 4.58 4.58a.26.26 0 0 0 .365 0 .258.258 0 0 0 0-.367l-4.579-4.58-.016-.014a1.58 1.58 0 0 1-.365.365M147.638 73.834l-.016.015-4.58 4.58a.259.259 0 1 0 .367.365l4.579-4.579.015-.016a1.58 1.58 0 0 1-.365-.365M150.17 72.032l.016-.015 4.58-4.58a.259.259 0 1 0-.367-.365l-4.579 4.579-.015.016c.141.1.264.224.365.365" fill="#FFCF00"/><path d="M147.369 73.288l-3.83 1.586a.26.26 0 0 0-.14.34.261.261 0 0 0 .339.14l3.829-1.587a.124.124 0 0 0 .02-.01 1.553 1.553 0 0 1-.198-.476l-.02.007M150.44 72.577l3.828-1.586a.26.26 0 0 0-.198-.479l-3.829 1.586-.02.01c.091.144.158.305.198.476l.02-.007M150.24 73.767l3.83 1.586a.259.259 0 0 0 .199-.478l-3.83-1.587-.02-.007a1.556 1.556 0 0 1-.197.477.344.344 0 0 0 .019.009M147.567 72.099l-3.829-1.586a.259.259 0 0 0-.199.478l3.83 1.587.02.007c.04-.172.107-.332.198-.477l-.02-.01M148.549 71.398l-1.586-3.83a.26.26 0 0 0-.479.198l1.586 3.83.01.02c.145-.091.305-.158.476-.198l-.007-.02M149.26 74.468l1.585 3.83a.259.259 0 0 0 .34.14.258.258 0 0 0 .14-.339l-1.587-3.829-.01-.02a1.553 1.553 0 0 1-.476.198l.007.02M148.07 74.27l-1.586 3.829a.26.26 0 0 0 .478.199l1.587-3.83.007-.02a1.544 1.544 0 0 1-.477-.198l-.01.02M149.738 71.596l1.586-3.829a.26.26 0 0 0-.478-.199l-1.587 3.83-.007.02c.171.04.332.107.476.197a.114.114 0 0 0 .01-.019" fill="#FF7400"/><path d="M7.162 92.487c-.404-.144-1.065-.144-1.468 0l-2.713.965c-.404.143-.725-.09-.713-.518l.079-2.878c.012-.43-.192-1.057-.453-1.397L.138 86.378c-.261-.34-.14-.717.272-.838l2.762-.814c.41-.122.945-.51 1.188-.864l1.627-2.374c.243-.354.639-.354.88 0l1.629 2.374c.242.354.777.742 1.188.864l2.76.814c.413.12.535.498.274.838l-1.756 2.28c-.261.34-.466.969-.454 1.398l.079 2.878c.012.428-.31.66-.712.518l-2.713-.965zM120.704 101.025a1.618 1.618 0 0 0-.93 0l-1.72.611c-.255.091-.458-.057-.45-.328l.05-1.823a1.62 1.62 0 0 0-.288-.885l-1.112-1.445c-.165-.216-.088-.455.173-.531l1.749-.516c.26-.077.599-.323.753-.547l1.03-1.504c.154-.224.405-.224.559 0l1.03 1.504c.155.224.493.47.754.547l1.749.516c.26.076.338.315.173.531L123.11 98.6a1.618 1.618 0 0 0-.287.885l.05 1.823c.008.271-.196.419-.451.328l-1.72-.611z" fill="#186B92"/><path d="M35.521 67.205a2.875 2.875 0 1 1-5.75 0 2.875 2.875 0 0 1 5.75 0M83.771 122.33a2 2 0 1 1-3.998 0 2 2 0 0 1 3.998 0" fill="#FFCE3F"/></g></svg>