<svg width="101" height="140" viewBox="0 0 101 140" xmlns="http://www.w3.org/2000/svg" xmlns:xlink="http://www.w3.org/1999/xlink"><title>427D3A76-A71D-4136-BDB3-3638203CB25D</title><defs><path id="a" d="M19.718 33H.254V.15h19.464V33z"/><path id="c" d="M.16.25h6.478v45.346H.16V.25z"/></defs><g fill="none" fill-rule="evenodd"><path d="M94.226 47.779a3.21 3.21 0 0 1-3.231 3.252c-1.754 0-3.235-1.481-3.235-3.234a3.218 3.218 0 0 1 3.215-3.233 3.218 3.218 0 0 1 3.25 3.215m-3.231-9.693c-5.36-.015-9.727 4.352-9.711 9.712 0 5.344 4.367 9.711 9.71 9.711a9.655 9.655 0 0 0 6.872-2.84 9.657 9.657 0 0 0 2.84-6.871c.016-5.36-4.351-9.727-9.711-9.712M72.843 64.788v3.054l-.015 35.257a9.649 9.649 0 0 1-2.84 6.871 9.681 9.681 0 0 1-6.872 2.84H43.693a9.722 9.722 0 0 1-9.726-9.726V64.788h38.876z" fill="#FFCE3F"/><path d="M72.828 55.062l.015 9.727H33.967v-9.712c0-1.802 1.45-3.252 3.237-3.237l16.2-.016h16.187c1.802 0 3.252 1.45 3.237 3.238" fill="#DB323E"/><g transform="translate(43 106.75)"><mask id="b" fill="#fff"><use xlink:href="#a"/></mask><path d="M19.062 1.8c1.61 4.01.192 9.215-3.563 12.97l-6.447 6.447c-1.588 1.588-1.88 3.927-.613 5.194 1.267 1.268.993 3.588-.614 5.194-.619.62-1.353 1.048-2.142 1.227-1.117.354-2.289.15-3.052-.613-3.787-3.787-2.96-10.782 1.84-15.583l6.447-6.447c1.24-1.24 1.736-2.987 1.176-4.321-.688-1.695.301-3.997 2.243-5.114C16.244-.36 18.374.107 19.062 1.8" fill="#F4F4F4" mask="url(#b)"/></g><path d="M62.062 108.55c1.61 4.01.192 9.215-3.563 12.97l-6.447 6.447c-1.588 1.588-1.88 3.927-.613 5.194 1.267 1.268.993 3.588-.614 5.194-.619.62-1.353 1.048-2.142 1.227l2.331-19.74 2.904-2.903c1.24-1.24 1.736-2.987 1.176-4.321-.688-1.695.301-3.997 2.243-5.114 1.907-1.113 4.037-.647 4.725 1.047" fill="#E4E4E4"/><path d="M72.828 55.062l.015 9.727H53.42l-.016-12.965H69.59c1.802 0 3.252 1.45 3.237 3.238" fill="#C9273A"/><path d="M72.843 64.788l-.015 38.311a9.649 9.649 0 0 1-2.84 6.871 9.681 9.681 0 0 1-6.872 2.84h-9.71l.014-44.999v-3.023h19.423z" fill="#F2BA2F"/><g transform="translate(50 -.25)"><mask id="d" fill="#fff"><use xlink:href="#c"/></mask><path d="M5.69 44.648a3.238 3.238 0 0 1-5.529-2.291V3.488a3.239 3.239 0 1 1 6.477 0v38.87a3.23 3.23 0 0 1-.948 2.29" fill="#FFCE3F" mask="url(#d)"/></g><path d="M81.507 30.661a3.224 3.224 0 0 1-1.76.904A17.221 17.221 0 0 0 66.19 43.132a3.243 3.243 0 0 1-4.097 2.05 3.24 3.24 0 0 1-2.049-4.098 23.677 23.677 0 0 1 18.644-15.91 3.237 3.237 0 0 1 2.82 5.487M45.974 44.398a3.24 3.24 0 0 1-5.105-.682 22.775 22.775 0 0 0-16.232-11.238 3.24 3.24 0 0 1 1.029-6.397c8.81 1.418 16.402 6.673 20.829 14.42a3.241 3.241 0 0 1-.52 3.897" fill="#DB323E"/><path d="M38.289 16.46a3.24 3.24 0 1 1 4.58 4.58 3.24 3.24 0 0 1-4.58-4.58M64.247 17.986a3.24 3.24 0 1 1 4.581 4.581 3.24 3.24 0 0 1-4.58-4.58" fill="#186B92"/><path fill="#F4F4F4" d="M48.84 84.21l4.581-4.58 4.581 4.58-4.58 4.581z"/><path d="M53.405 45.346a3.23 3.23 0 0 0 2.285-.947 3.23 3.23 0 0 0 .948-2.291V3.238A3.238 3.238 0 0 0 53.404.002v45.345z" fill="#F2BA2F"/><path d="M17.116 48.543c0 1.86-1.464 3.25-3.232 3.251-1.754 0-3.234-1.48-3.234-3.234a3.218 3.218 0 0 1 3.214-3.233 3.22 3.22 0 0 1 3.252 3.216m-3.233-9.693c-5.36-.016-9.726 4.351-9.711 9.711 0 5.344 4.367 9.711 9.71 9.711a9.655 9.655 0 0 0 6.872-2.84 9.647 9.647 0 0 0 2.84-6.87c.016-5.36-4.351-9.728-9.711-9.712" fill="#FFCE3F"/><path fill="#186B92" d="M89.09 60.425l-3.172 7.993-5.709 1.786 5.637 1.997 2.867 8.095 3.172-7.98 5.71-1.782-5.638-2zM6.941 81.89l-2.479 6.246L0 89.531l4.406 1.561 2.24 6.327 2.48-6.237 4.461-1.393-4.405-1.564z"/></g></svg>