<svg width="116" height="104" viewBox="0 0 116 104" xmlns="http://www.w3.org/2000/svg" xmlns:xlink="http://www.w3.org/1999/xlink"><title>80D2966C-4C34-4947-A995-92E005B77C61</title><defs><path id="a" d="M15.125.503V12H.625V.503h14.5z"/></defs><g fill="none" fill-rule="evenodd"><path d="M82.079 65.013c.089 16.025-9.027 36.071-27.815 36.175-18.788.104-28.126-19.84-28.215-35.864-.09-16.025 12.42-22.08 27.893-22.167 15.472-.086 28.048 5.831 28.137 21.856" fill="#F4F4F4"/><path d="M64.415 9.73c.38 7.604 2.661 21.668-25.68 21.547h-.26c-7.737 0-14.05 6.179-15.177 13.833-1.667 11.338 3.864 28.483 3.864 28.483s.89-19.22 7.983-25.85c19.387 12.545 41.35 7.547 41.35 7.547l5.026 17.163c9.503-14.065 2.095-52.8-17.106-62.722" fill="#DB323E"/><path d="M27.43 69.299c-3-.752-4.965.852-4.965 4.002 0 4.169 4.034 14.382 8.274 8.005 4.241-6.38-3.31-12.007-3.31-12.007M81.082 69.299c3.274-.752 5.418.852 5.418 4.002 0 4.169-4.402 14.382-9.031 8.005-4.63-6.38 3.613-12.007 3.613-12.007" fill="#F4F4F4"/><path d="M85.543 68.175h-4.357c-1.145-5.382-6.125-9.444-12.078-9.444-5.953 0-10.933 4.062-12.078 9.444h-5.427c-1.145-5.382-6.125-9.444-12.078-9.444-5.953 0-10.933 4.062-12.078 9.444H23.09c-1.36 0-2.465 1.057-2.465 2.36 0 1.305 1.104 2.362 2.465 2.362h4.357c1.145 5.382 6.126 9.444 12.078 9.444 5.953 0 10.933-4.062 12.078-9.444h5.427c1.145 5.382 6.126 9.444 12.078 9.444 5.953 0 10.933-4.062 12.078-9.444h4.357c1.361 0 2.465-1.057 2.465-2.361 0-1.304-1.104-2.361-2.465-2.361" fill="#176B92"/><path d="M39.525 77.619c-4.078 0-7.396-3.177-7.396-7.083 0-3.905 3.318-7.083 7.396-7.083 4.078 0 7.396 3.178 7.396 7.083 0 3.906-3.318 7.083-7.396 7.083M69.108 77.619c-4.078 0-7.396-3.177-7.396-7.083 0-3.905 3.318-7.083 7.396-7.083 4.078 0 7.396 3.178 7.396 7.083 0 3.906-3.318 7.083-7.396 7.083" fill="#F4F4F4"/><path d="M49.713 1.662a5.674 5.674 0 0 0-8.023 0l-4.01 4.011-4.013-4.011a5.674 5.674 0 0 0-8.023 8.023L37.68 21.719 49.713 9.685a5.674 5.674 0 0 0 0-8.023" fill="#DB313D"/><g transform="translate(100 91.567)"><mask id="b" fill="#fff"><use xlink:href="#a"/></mask><path d="M14.245 1.383a3.003 3.003 0 0 0-4.247 0L7.875 3.506 5.751 1.383A3.003 3.003 0 1 0 1.504 5.63L7.875 12l6.37-6.37a3.003 3.003 0 0 0 0-4.247" fill="#FFCE3F" mask="url(#b)"/></g><path d="M65.625 89.48c0 1.1-.9 2-2 2h-16.5c-1.1 0-2-.9-2-2s.9-2 2-2h16.5c1.1 0 2 .9 2 2" fill="#DB313D"/><path d="M7.75 44.73a3.875 3.875 0 1 1-7.75 0 3.875 3.875 0 0 1 7.75 0" fill="#186B92"/><path d="M34.821 48.006s-2.872-7.722 20.104-11.004c22.976-3.28 12.446-23.357 9.383-27.605 4.34 4.504 8.456 10.751 9.445 17.76 1.168 8.272-6.382 14.543-9.956 20.978-1.86 3.35 1.592 6.81 4.911 8.096-3.319.643-18.186 1.3-33.887-8.225" fill="#FFCE3E"/></g></svg>