<svg id="Layer_1" xmlns="http://www.w3.org/2000/svg" viewBox="0 0 64 63"><style>.st0{fill:none}.st1{fill:#db323e}.st2{fill:#076a8f}</style><path class="st0" d="M15.7 28.8c.3 2.1 1.1 4.8 2.5 5.1 2.6.6 7.2-.2 7.6-1.7.4-1.3.6-2.7.7-3.6-3.5-.4-7.2-.3-10.8.2zm6.8 1.8v1.1c0 .5-.4.8-.8.8-.5 0-.8-.4-.8-.8v-1.1c0-.5.4-.8.8-.8.4-.1.8.3.8.8zm20.9 3.3c1.4-.3 2.2-3 2.5-5.1-3.6-.5-7.3-.5-10.9-.1.1.8.3 2.2.7 3.6.5 1.3 5.1 2.1 7.7 1.6zm-3.6-3.3c0-.5.4-.8.8-.8.5 0 .8.4.8.8v1.1c0 .5-.4.8-.8.8-.5 0-.8-.4-.8-.8v-1.1z"/><path class="st1" d="M47.8 40.8c-1.1-.5-3.7-2.1-5.2-3.5-.4 0-.8.1-1.3.1-3.5 0-8-1.1-9-4.2-.2-.6-.3-1.2-.5-1.8-.7-.1-1.6-.1-2.4 0-.1.6-.3 1.2-.5 1.8-1 3.1-5.4 4.2-9 4.2-1 0-2-.1-2.7-.3-1-.2-1.9-.8-2.7-1.6-2.4-.1-4.9.2-5.2.4-.2.1-1.5 1.1-1.1 2.4.4 1.2 1.5 2.6 3.6 2.6 1.7 0 4.5-1.6 5.8-2.3.9-.4 2.7-.5 3.5.2.9.7 1.2 1.8.4 3.8-.8 1.9-8 8.4-9.1 10.2-1.1 1.7-2.6 5.8 1.1 7.3 4 1.7 7.4-1.9 8.9-8.1 1.7-7 2.5-8.1 4.9-8.4 1.7-.2 4.7.3 5 3.1.3 2.8-.4 9.7 4.9 8.4 4.4-1.1.5-7.2.3-9.4s.7-4.4 2.6-5.1c1.2-.5 2.6-.3 5.8 1.2 3.3 1.5 5.1 2.7 5.8 1.7.6-1-2-1.9-3.9-2.7zM19.6 20.2c.7 1.7.6 2.9.2 3.7 2.9 0 5.9.3 8.7.9.8.2 1.5.7 1.7 1.4h1.1c.2-.7.9-1.3 1.7-1.4 2.9-.6 5.9-.9 8.9-.9h1.7l.3-.3c2.7-2.1 8.1-4.2 9.8-5 1.7-.8 4.5-3.3 3.3-5.5-1-1.7-2.9-1.4-5.3.2-2.2 1.5-5.8 5.1-8.2 7.2-1.9 1.6-7.1 1.9-8.2-.3-1.1-2.2.1-5.1 2.5-7.4C40.6 10 41 7.2 40.9 6c-.1-1.3-2.2-2.5-3.8-1.7-1.5.7-4.2 3.5-4.8 6.9-.5 3.2-.2 5.7-2.8 8.1-1.4 1.2-2.8-.4-3.2-.9-1-1.3-1.2-7.4-2.3-4.3-.9 2.7-1.2 3.3-3.4 2.6-1.3-.4-2-.9-3.4-3.4s-3.1-7.5-5.1-9c-.9-.7-2.9-1.5-4.4.5C6.2 6.7 7.3 9.2 9 11c1.7 1.8 9.2 5.9 10.6 9.2z"/><path class="st1" d="M25.4 9.8c.3-.4.7-1.4-.2-2.1 0 0-.6-.8-1.4-.3-.5.3-.7 1.7 0 2.3.8.6 1.3.5 1.6.1z"/><ellipse transform="rotate(-51.655 29.17 3.407)" class="st1" cx="29.2" cy="3.4" rx="2.7" ry="2"/><ellipse transform="rotate(-47.188 6.993 21.697)" class="st1" cx="7" cy="21.7" rx="3.5" ry="4.1"/><ellipse transform="rotate(-51.582 39.732 56.5)" class="st1" cx="39.7" cy="56.5" rx="1.5" ry="1.1"/><path class="st1" d="M50.4 28.8c-.2.7-.6 1.2-1.3 1.5-.2 1.1-.5 2-.9 2.9.3.1.6.2.9.2 2.9.5 5.4-.2 5.4-2.2-.1-1.8-1.7-2.5-4.1-2.4zm8.1 15.7c-1.8-.4-3.3-.6-3.5-.2-.2.4.1 1.1 2 2.2 2 1.1 2.6.7 3 .1.3-.6.2-1.7-1.5-2.1z"/><path class="st2" d="M28.3 26.1c-5.1-1-10.3-1.1-15.4-.3-.5.1-.8.5-.7 1 .1.7.2 1 .3 1.7.1.5.5.8.9.7h.2c.3 2.2 1.3 6 4.1 6.6.7.2 1.5.2 2.5.2 3.1 0 7-.9 7.7-3.2.3-.9.5-1.7.6-2.5.9-.3 2.8-.7 4.7 0 .1.8.3 1.6.6 2.5.7 2.3 4.6 3.2 7.7 3.2.9 0 1.8-.1 2.4-.2 2.8-.6 3.8-4.4 4.1-6.6h.2c.4.1.8-.2.9-.7.1-.7.2-1 .3-1.7.1-.5-.2-.9-.7-1-5.1-.8-10.4-.7-15.5.3-.4.1-.8.5-.7.8.1.3.1.5.2.8-1.5-.3-2.9-.2-3.9 0 .1-.3.1-.5.2-.8.1-.3-.2-.7-.7-.8zm-2.5 6.1c-.4 1.4-5.1 2.2-7.6 1.7-1.4-.3-2.2-3-2.5-5.1 3.6-.5 7.3-.5 10.9-.1-.1.8-.3 2.2-.8 3.5zm20.1-3.4c-.3 2.1-1.1 4.8-2.5 5.1-2.6.6-7.2-.2-7.6-1.7-.4-1.3-.6-2.7-.7-3.6 3.5-.4 7.2-.3 10.8.2z"/><path class="st1" d="M40.6 32.5c.5 0 .8-.4.8-.8v-1.1c0-.5-.4-.8-.8-.8-.5 0-.8.4-.8.8v1.1c0 .5.4.8.8.8zm-19.8-1.9v1.1c0 .5.4.8.8.8.5 0 .8-.4.8-.8v-1.1c0-.5-.4-.8-.8-.8-.4-.1-.8.3-.8.8z"/></svg>