<svg id="Layer_1" xmlns="http://www.w3.org/2000/svg" viewBox="0 0 170 140"><style>.st0{fill:#ffce3f}.st1{fill:#e8b42c}.st2{fill:#f1f3f5}.st3{fill:#da333e}.st4{fill:#176c93}</style><path class="st0" d="M121.4 16.8h-63c-7.2 0-13.1 5.9-13.1 13.1V111c.2-6.9 6.2-12.2 13.1-12.2h64.8c.9 0 1.7.8 1.7 1.7V20.4c.1-2-1.5-3.6-3.5-3.6z"/><path class="st1" d="M57.9 120.6c-5.3 0-9.6-4.6-9.1-10 .5-4.7 4.7-8.2 9.5-8.2h65c.9 0 1.7-.8 1.7-1.7 0-.9-.8-1.7-1.7-1.7H58.4c-6.9 0-12.9 5.3-13.1 12.2-.2 7.1 5.5 13 12.6 13h65.4c.9 0 1.7-.8 1.7-1.7 0-.9-.8-1.7-1.7-1.7H57.9z"/><path class="st2" d="M48.8 110.5c-.5 5.4 3.8 10 9.1 10h65c-2.8-6.1-2.8-12.2 0-18.3H58.3c-4.8.1-9 3.6-9.5 8.3z"/><path transform="rotate(-45.009 85.759 84.055)" class="st3" d="M80.2 78.5h11.1v11.1H80.2z"/><path class="st3" d="M113.7 52.8c-.2-14.8-13.2-27-28-27-14.9 0-26.9 12.2-27 27h14c.1-7.4 5.9-13 13-13s13.8 5.9 14 13h-14v17.8h11.8v-8.9h16.2v-8.9z"/><path transform="rotate(-24.314 141.54 62.706)" class="st4" d="M138.9 60.1h5.2v5.2h-5.2z"/><path class="st4" d="M159.2 53.5c2.4-6.6-1.3-14.2-7.9-16.7-6.6-2.5-14 .9-16.5 7.4l6.2 2.3c1.3-3.2 4.8-4.8 7.9-3.6 3.2 1.2 5.1 4.9 4 8.1l-1-.4-5.2-2-1.5 3.9-1.5 3.9 5.2 2 1.5-3.9 7.2 2.7 1.6-3.7zM114.4 119.7l-8.4-4.3-8.3 4.3v-17.5h16.7z"/><circle class="st4" cx="29.2" cy="54.7" r="5.3"/><circle class="st4" cx="10" cy="35.4" r="2.6"/></svg>