<svg id="Layer_1" xmlns="http://www.w3.org/2000/svg" viewBox="0 0 170 140"><style>.st0{fill:#ffce3f}.st1{fill:#da333e}.st2{fill:none}.st3{fill:#176c93}</style><path class="st0" d="M132.3 65c-3.2 0-6.2.6-9 1.6l-15.2-26.9h15.6v-19h-9.5v9.5H91.9l11.5 20.5H70.1l-6.2-11h8.3v-9.5H43.7v9.5H53l8 14.1-7.7 13c-3-1.1-6.2-1.7-9.5-1.7-14.9-.1-27 11.9-27 26.8s12.1 26.9 26.9 26.9c13.2 0 24.2-9.6 26.5-22.2h6.1c1.9 4.6 6.4 7.9 11.7 7.9 7 0 12.7-5.7 12.7-12.7S95 79.2 88 79.2c-.6 0-1.1 0-1.7.1L75.5 60.1h33.3l6.3 11.1c-5.9 4.9-9.7 12.4-9.7 20.6 0 14.8 12.1 26.9 26.9 26.9 14.8 0 26.9-12.1 26.9-26.9S147.1 65 132.3 65zm-66-1.8L78.1 84c-.7.9-1.4 2-1.8 3.1h-6.1c-1.1-6.2-4.3-11.6-8.8-15.5l4.9-8.4zM39 91.9c0-2.6 2.1-4.7 4.7-4.7s4.7 2.1 4.7 4.7-2.1 4.7-4.7 4.7-4.7-2.1-4.7-4.7zm93.3-4.8c2.6 0 4.7 2.1 4.7 4.7s-2.1 4.7-4.7 4.7-4.7-2.1-4.7-4.7 2.1-4.7 4.7-4.7z"/><circle class="st1" cx="43.4" cy="92.3" r="11.9"/><circle class="st1" cx="132.5" cy="91.8" r="7.8"/><path class="st1" d="M161.6 46.5c-.1-.2-.3-.4-.5-.5l-7.2-1.5 7.4-10.6c.1-.2.2-.4.1-.7-.1-.2-.3-.4-.5-.4l-8-1.6c-.3-.1-.6.1-.7.3L141.6 49c-.1.2-.1.4 0 .6.1.2.3.4.5.4l7.8 1.6-6.3 11.4c-.1.2-.1.4 0 .6.1.2.3.3.5.4l1.9.4c.2.1.5 0 .7-.2l14.8-16.9c.1-.3.2-.5.1-.8z"/><path class="st2" d="M136.1 32.7h12.2v21.7h-12.2z"/><path class="st1" d="M76.3 61.6l-.9-1.5h2.3c.4-.4 5-6.8 7-9.5H70.1l-6.2-11h8.3v-9.5H43.7v9.5H53l8 14.1-7.7 12.9c1.9.9 5.9 2.9 8.2 4.7l4.8-8.1 4.1 7.2c0 .1 3.9-5.6 5.9-8.8z"/><path class="st3" d="M25.8 50.4c-2 1.4-4.7.9-6.1-1L10 35.8c-1.4-2-.9-4.7 1-6.1 2-1.4 4.7-.9 6.1 1l9.7 13.6c1.4 1.9 1 4.7-1 6.1z"/></svg>