<svg xmlns="http://www.w3.org/2000/svg" width="298" height="99.031" viewBox="0 0 298 99.031"><defs><style>.cls-1{fill:#176a8f;fill-rule:evenodd}</style></defs><path class="cls-1" d="M33.23 28.054q0 6.406-2.78 18.366-2.91 12.324-3.06 18.365a4.139 4.139 0 0 1 .99 2.712 4.194 4.194 0 0 1-1.35 3.094 4.317 4.317 0 0 1-3.13 1.32q-3.405 0-4.76-4.061-14.73-.425-14.73-10.608a9.829 9.829 0 0 1 4.36-8.261 13.2 13.2 0 0 1 7.92-2.77 40.031 40.031 0 0 1 4.64.777q3.225-12.948 3.22-18.934 0-3.978-1.43-5.624t-5.3-1.64q-5.73 0-5.73 8.4c0 .951.08 2.4.22 4.345s.21 3.4.21 4.345c0 1.756-.97 3.2-2.92 4.346a10.056 10.056 0 0 1-5.26 1.494q-4.335 0-4.34-3.348 0-10.968 3.2-18.724 4.56-11.037 14.59-11.032 7.605 0 11.67 5.053 3.765 4.623 3.77 12.385zM19.42 56.813a13.132 13.132 0 0 0-2.8-.428 4.245 4.245 0 0 0-2.16.643 2.033 2.033 0 0 0-1.37 1.639q0 1.992 5.83 1.924c.14-1.187.31-2.445.5-3.778zm50.14-15.8q0 7.839-6.05 7.833a9.027 9.027 0 0 1-1.93-.215c-2.98-.666-4.48-2.085-4.48-4.269a3.87 3.87 0 0 1 .22-1.287 16.543 16.543 0 0 0 .92-5.335q0-4.554-2.49-4.559-1.92 0-7.83 10.612 0 1.209.36 11.321.285 7.752.07 11.315-.21 3.416-3.77 3.418a5.97 5.97 0 0 1-4.13-1.605 4.655 4.655 0 0 1-1.63-3.951 351.608 351.608 0 0 0-.29-38.584 4.547 4.547 0 0 1 1.85-4.055 7.183 7.183 0 0 1 4.56-1.565c2.6 0 3.96 1.136 4.05 3.418a14.465 14.465 0 0 1-.71 3.986l-.22.567a10.5 10.5 0 0 1 7.69-3.626q6.12 0 10.17 5.62a18.221 18.221 0 0 1 3.64 10.957zm33.11 5.979q0 10.967-3.35 18.3-4.56 9.976-14.37 9.971-10.6 0-10.6-19.1c0-.753.02-1.9.07-3.442s.07-2.688.07-3.44q0-4.26.07-12.92l.07-12.711a20.662 20.662 0 0 1-5.05.568 4.048 4.048 0 0 1-3.2-1.385 4.963 4.963 0 0 1-1.21-3.383 4.761 4.761 0 0 1 1.18-3.308 3.989 3.989 0 0 1 3.16-1.322q3.345 0 4.98-.138c-.24-4.322-.09-7.45.43-9.4C75.87 1.77 78.02.01 81.39.01a7.429 7.429 0 0 1 3.49.788 3.189 3.189 0 0 1 1.92 2.844 3.589 3.589 0 0 1-.43 1.64q-1.1 2.137-1.89 4.055a16.822 16.822 0 0 0-1.31 4.2 89.348 89.348 0 0 1 9.59-.782c2.58-.046 3.86 1.449 3.86 4.485a7.609 7.609 0 0 1-1.32 4.415 4.416 4.416 0 0 1-3.73 1.992 18.938 18.938 0 0 1-4.17-.672 15.314 15.314 0 0 0-4.02-.609q0 4.416-.07 13.314l-.06 13.528c0 6.883-.03 10.173-.08 9.9q.21 4.267.36 5.052c.24 1.564.71 2.353 1.42 2.353q6.69 0 6.69-10.968a8.866 8.866 0 0 1-.14-1.847c-.1-1.809-.22-4.155-.36-7.051-.1-1.709.76-3.2 2.56-4.485a8.419 8.419 0 0 1 5.05-1.709c2.38 0 3.63 1.066 3.78 3.205.09 1.603.14 2.716.14 3.33zm39.09-30.115a4.331 4.331 0 0 1-.14.927 82.266 82.266 0 0 0-1.85 15.6q-.21 8.682-.86 25.978-.78 15.522-4.98 24.5-6.18 13.164-18.49 13.168-17.445 0-17.44-13.458 0-13.662 8.82-13.661 7.62 0 7.62 4.982a5.12 5.12 0 0 1-1.26 3.308 3.8 3.8 0 0 1-3.05 1.53 3.985 3.985 0 0 1-2.66-1.142h-.36c-.29.569-.43 2.237-.43 4.983a4.09 4.09 0 0 0 3.07 4.136 19.917 19.917 0 0 0 5.64.568q5.925 0 9.92-8.262a44.925 44.925 0 0 0 4-13.383 16.276 16.276 0 0 1-3.84.5q-13.02 0-15.8-11.6a87.975 87.975 0 0 1-1.35-11.106q-.57-6.552-.57-22.71a5.06 5.06 0 0 1 2.35-4.194 7.831 7.831 0 0 1 4.77-1.571q3.915 0 3.91 3.355c0 .805-.12 3.163-.35 7.056q-.435 6.561-.58 11.054-.555 14.973.93 18.11 1.35 2.852 6.69 2.851a12.822 12.822 0 0 0 2.49-.353c1.28-.285 1.97-.6 2.06-.927a4.849 4.849 0 0 1 .21-.644q.225-4.344.08-12.333l-.08-9.056c0-1.188-.1-2.955-.32-5.313s-.32-4.124-.32-5.312a16.3 16.3 0 0 1 .57-4.994 7.064 7.064 0 0 1 3.21-3.743 9.482 9.482 0 0 1 4.98-1.46c2.27-.018 3.41.863 3.41 2.612zm50.01 9.4a11.267 11.267 0 0 1-2.92 7.619 13.364 13.364 0 0 1 .5 3.771c-.04 1.518-.09 3.036-.14 4.56v3.985q0 8.751-2.63 14.021a11.674 11.674 0 0 1-11.39 7.045l-.28.075a4.449 4.449 0 0 0-1 .423l.36.075a4.659 4.659 0 0 1 1.77.5c2.9.33 4.66.544 5.27.643a11.978 11.978 0 0 1 4.85 1.7c1.7 1.24 3.05 3.465 4.05 6.7a22.2 22.2 0 0 1 1.13 6.478 15.425 15.425 0 0 1-3.91 10.6 13.238 13.238 0 0 1-10.24 4.56c-6.51 0-10.2-.046-11.1-.145q-6.555-.713-9.4-4.34-2.7-3.414-2.7-10.248 0-8.334 10.96-13.6a9.047 9.047 0 0 1-.43-2.92 7.56 7.56 0 0 1 .71-3.2q-5.7-4.77-5.69-19.506a25.222 25.222 0 0 1 4.27-14.663q5.04-7.336 14.37-7.336a12.543 12.543 0 0 1 4.13.638 6.581 6.581 0 0 0-4.05-3.2c-1.47-.428-2.22-1.262-2.22-2.49 0-1.57.86-3.019 2.56-4.345a7.519 7.519 0 0 1 4.78-1.924 4.82 4.82 0 0 1 1.42.214 8.6 8.6 0 0 1 5.98 5.695 28.427 28.427 0 0 1 .99 8.614zm-9.11 56.168a11.222 11.222 0 0 0-.6-3.093 12.874 12.874 0 0 0-1.25-2.955c-1.4-.244-3.54-.62-6.46-1.141a27.326 27.326 0 0 0-7.17 2.635q-4.515 2.418-4.51 4.983a11.755 11.755 0 0 0 .86 4.982q1.575.851 6.6 1h7.08a4.758 4.758 0 0 0 3.99-1.923 7.221 7.221 0 0 0 1.46-4.489zm-1.99-44.355c-.28-3.221-1.14-4.838-2.56-4.838q-9.885 0-9.89 11.82a66.1 66.1 0 0 0 .28 7.4c.49 3.707 1.59 5.631 3.32 5.769a5.059 5.059 0 0 1 1.72.429 6.738 6.738 0 0 1 1.52-.144c2.44.1 4.08-1.663 4.89-5.267a40.794 40.794 0 0 0 .58-8.185c0-.574.03-1.733.11-3.5a18.613 18.613 0 0 0 .03-3.485zm43.59 9.322a4.4 4.4 0 0 1-4.34 4.351 15.978 15.978 0 0 0-1.93.173 14.956 14.956 0 0 1-1.92.187c.43 0-3.49-.151-11.74-.429q.075 8.392 4.91 8.4.93 0 .93-1.511 0-2.443 2.7-3.957a9.816 9.816 0 0 1 4.84-1.228q5.34 0 5.34 3.777c0 2.7-1.61 5.33-4.8 7.867q-4.815 3.807-9.01 3.807-7.185 0-10.74-5.487-2.91-4.57-2.92-12.119 0-14.331 1.71-22.1 3.21-14.616 12.53-14.616 8.25 0 11.73 10.133a51.567 51.567 0 0 1 2.71 16.9v5.852zm-8.69-3.842a68.943 68.943 0 0 0-1.42-9.935q-1.38-6.788-4.3-6.79-4.3 0-5.23 17.514 3.51.208 10.81.428zm42.45 3.842a4.4 4.4 0 0 1-4.35 4.351 15.851 15.851 0 0 0-1.92.173 15.117 15.117 0 0 1-1.92.187c.43 0-3.49-.151-11.74-.429.04 5.595 1.69 8.4 4.9 8.4q.93 0 .93-1.511 0-2.443 2.71-3.957a9.789 9.789 0 0 1 4.84-1.228q5.325 0 5.33 3.777c0 2.7-1.6 5.33-4.8 7.867s-6.2 3.807-9.01 3.807c-4.78 0-8.37-1.831-10.74-5.487q-2.91-4.57-2.91-12.119 0-14.331 1.7-22.1 3.21-14.616 12.53-14.616 8.25 0 11.74 10.133a51.567 51.567 0 0 1 2.71 16.9v5.852zm-8.69-3.842a70.494 70.494 0 0 0-1.43-9.935c-.91-4.525-2.35-6.79-4.3-6.79q-4.29 0-5.22 17.514 3.495.208 10.81.428zM298 70.341a9.96 9.96 0 0 1-1.99 5.765q-2.19 3.058-5.03 2.781c-5.24-.522-8.77-2.665-10.56-6.408q-1.785-3.7-1.78-12.032 0-5.555-.14-6.124-.735-2.921-4.37-2.99a6.2 6.2 0 0 1-1.68.568v11.818a4.311 4.311 0 0 1-1.23 3.169 4.254 4.254 0 0 1-3.15 1.246 4.125 4.125 0 0 1-3.1-1.246 4.37 4.37 0 0 1-1.2-3.169l.22-55.315a4.673 4.673 0 0 1 2.7-4.126 9.7 9.7 0 0 1 4.98-1.286c3.13 0 4.7 1.194 4.7 3.563a119.623 119.623 0 0 1-1.78 18.58q-1.995 12.531-2.14 16.731a53.355 53.355 0 0 0 5.58-7.334 48.088 48.088 0 0 0 3.44-5.62 22.238 22.238 0 0 0 1.76-6.3 26.707 26.707 0 0 1 1.32-5.736c.82-2.039 2.63-3.059 5.45-3.059a7.524 7.524 0 0 1 3.64.858 3.385 3.385 0 0 1 2.01 2.989 3.813 3.813 0 0 1-.28 1.426q-3.7 9.106-5.84 13.313a63.305 63.305 0 0 1-7.82 12.1 10.7 10.7 0 0 1 4.76 6.767 37.713 37.713 0 0 1 .85 9.183q0 4.63 1.92 5.556a30.44 30.44 0 0 0 5.98.776q2.78.21 2.78 3.556z"/></svg>