<svg width="132" height="72" viewBox="0 0 132 72" xmlns="http://www.w3.org/2000/svg" xmlns:xlink="http://www.w3.org/1999/xlink"><title>DA062164-B8EC-469A-9497-1432BDAB6F97</title><defs><path id="a" d="M7.051.259v6.166H.884V.259h6.167z"/></defs><g fill="none" fill-rule="evenodd"><path d="M33.555 63.572c-.368-.355-.85-.91-1.445-1.669a109.737 109.737 0 0 1-1.936-2.549 282.453 282.453 0 0 0-2.184-2.916 57.878 57.878 0 0 0-2.237-2.778 24.757 24.757 0 0 0-2.05-2.143c-.634-.58-1.173-.91-1.616-.996-.216.533-.44 1.275-.67 2.226-.23.951-.461 2.01-.692 3.173a113.33 113.33 0 0 0-.661 3.663c-.21 1.277-.41 2.516-.602 3.715a239.13 239.13 0 0 0-.515 3.347 106.398 106.398 0 0 1-.391 2.507l-2.427.345-13.951-20.37c-.175-.242-.214-.47-.117-.68.098-.212.25-.385.458-.522.208-.136.442-.25.7-.344.26-.093.46-.154.605-.182.39-.076.699-.05.926.075.227.127.422.307.585.542.163.235.316.498.458.79.143.292.303.57.483.833.44.618.97 1.367 1.59 2.25a912.98 912.98 0 0 0 1.944 2.754 223.142 223.142 0 0 0 3.99 5.458c.59.78 1.1 1.427 1.53 1.94.43.513.72.82.867.92a536.32 536.32 0 0 1 1.436-7.317c.41-1.999.769-3.653 1.079-4.96a88.58 88.58 0 0 1 .766-3.044c.2-.72.368-1.255.503-1.6.135-.347.243-.56.323-.64.08-.08.142-.123.183-.13.328-.066.753.065 1.275.39.522.324 1.09.783 1.708 1.377a37.95 37.95 0 0 1 1.97 2.063 95.864 95.864 0 0 1 2.109 2.451c.71.853 1.398 1.705 2.065 2.555.667.851 1.29 1.641 1.869 2.37.58.73 1.092 1.36 1.537 1.891.445.532.794.901 1.047 1.107a58.72 58.72 0 0 0 .282-3.637c.064-1.312.102-2.674.115-4.084.013-1.409.006-2.842-.022-4.297a694.314 694.314 0 0 0-.094-4.25 217.276 217.276 0 0 0-.132-3.957 308.37 308.37 0 0 1-.128-3.445c.637-.124 1.142-.159 1.515-.104.373.055.659.181.857.377.198.196.342.445.433.747.09.302.17.627.239.977.004-.086.035.26.09 1.037.056.778.119 1.864.188 3.258s.135 3.017.198 4.87c.063 1.854.102 3.802.117 5.846.015 2.044-.008 4.112-.07 6.202a97.448 97.448 0 0 1-.345 5.936c-.445.45-.836.718-1.171.804a1.142 1.142 0 0 1-.92-.124c-.278-.17-.55-.44-.814-.817a53.333 53.333 0 0 1-.85-1.24" fill="#DA333E"/><path d="M33.555 63.572c-.368-.355-.85-.91-1.445-1.669a109.737 109.737 0 0 1-1.936-2.549 282.453 282.453 0 0 0-2.184-2.916 57.878 57.878 0 0 0-2.237-2.778 24.757 24.757 0 0 0-2.05-2.143c-.634-.58-1.173-.91-1.616-.996-.216.533-.44 1.275-.67 2.226-.23.951-.461 2.01-.692 3.173a113.33 113.33 0 0 0-.661 3.663c-.21 1.277-.41 2.516-.602 3.715a239.13 239.13 0 0 0-.515 3.347 106.398 106.398 0 0 1-.391 2.507l-2.427.345-13.951-20.37c-.175-.242-.214-.47-.117-.68.098-.212.25-.385.458-.522.208-.136.442-.25.7-.344.26-.093.46-.154.605-.182.39-.076.699-.05.926.075.227.127.422.307.585.542.163.235.316.498.458.79.143.292.303.57.483.833.44.618.97 1.367 1.59 2.25a912.98 912.98 0 0 0 1.944 2.754 223.142 223.142 0 0 0 3.99 5.458c.59.78 1.1 1.427 1.53 1.94.43.513.72.82.867.92a536.32 536.32 0 0 1 1.436-7.317c.41-1.999.769-3.653 1.079-4.96a88.58 88.58 0 0 1 .766-3.044c.2-.72.368-1.255.503-1.6.135-.347.243-.56.323-.64.08-.08.142-.123.183-.13.328-.066.753.065 1.275.39.522.324 1.09.783 1.708 1.377a37.95 37.95 0 0 1 1.97 2.063 95.864 95.864 0 0 1 2.109 2.451c.71.853 1.398 1.705 2.065 2.555.667.851 1.29 1.641 1.869 2.37.58.73 1.092 1.36 1.537 1.891.445.532.794.901 1.047 1.107a58.72 58.72 0 0 0 .282-3.637c.064-1.312.102-2.674.115-4.084.013-1.409.006-2.842-.022-4.297a694.314 694.314 0 0 0-.094-4.25 217.276 217.276 0 0 0-.132-3.957 308.37 308.37 0 0 1-.128-3.445c.637-.124 1.142-.159 1.515-.104.373.055.659.181.857.377.198.196.342.445.433.747.09.302.17.627.239.977.004-.086.035.26.09 1.037.056.778.119 1.864.188 3.258s.135 3.017.198 4.87c.063 1.854.102 3.802.117 5.846.015 2.044-.008 4.112-.07 6.202a97.448 97.448 0 0 1-.345 5.936c-.445.45-.836.718-1.171.804a1.142 1.142 0 0 1-.92-.124c-.278-.17-.55-.44-.814-.817a53.333 53.333 0 0 1-.85-1.24z" stroke="#DA333E" stroke-width="4.018"/><path d="M44.393 60.451c0 2.205.551 3.847 1.653 4.927 1.102 1.08 2.748 1.62 4.938 1.62 1.095 0 2.093-.17 2.996-.51.902-.34 1.672-.818 2.308-1.432a6.36 6.36 0 0 0 1.476-2.197c.347-.85.521-1.794.521-2.83 0-1.035-.222-1.919-.666-2.652a5.588 5.588 0 0 0-1.73-1.797 7.383 7.383 0 0 0-2.43-1.01c-.91-.207-1.83-.31-2.764-.31-.828 0-1.623.162-2.385.488a6.437 6.437 0 0 0-3.395 3.284 5.708 5.708 0 0 0-.522 2.42m-2.264.443c0-1.272.22-2.434.655-3.484a8.147 8.147 0 0 1 1.787-2.697 7.999 7.999 0 0 1 2.685-1.742c1.035-.414 2.152-.62 3.351-.62 1.154 0 2.274.143 3.362.432a8.752 8.752 0 0 1 2.896 1.342 6.835 6.835 0 0 1 2.03 2.32c.511.94.766 2.067.766 3.384 0 3.048-.714 5.303-2.142 6.768-1.427 1.465-3.628 2.197-6.602 2.197-1.257 0-2.422-.148-3.495-.444-1.072-.296-2-.758-2.785-1.387-.784-.628-1.398-1.442-1.842-2.44-.444-.999-.666-2.209-.666-3.629" fill="#DA333E"/><path d="M44.393 60.451c0 2.205.551 3.847 1.653 4.927 1.102 1.08 2.748 1.62 4.938 1.62 1.095 0 2.093-.17 2.996-.51.902-.34 1.672-.818 2.308-1.432a6.36 6.36 0 0 0 1.476-2.197c.347-.85.521-1.794.521-2.83 0-1.035-.222-1.919-.666-2.652a5.588 5.588 0 0 0-1.73-1.797 7.383 7.383 0 0 0-2.43-1.01c-.91-.207-1.83-.31-2.764-.31-.828 0-1.623.162-2.385.488a6.437 6.437 0 0 0-3.395 3.284 5.708 5.708 0 0 0-.522 2.42zm-2.264.444c0-1.272.22-2.434.655-3.484a8.147 8.147 0 0 1 1.787-2.697 7.999 7.999 0 0 1 2.685-1.742c1.035-.414 2.152-.62 3.351-.62 1.154 0 2.274.143 3.362.432a8.752 8.752 0 0 1 2.896 1.342 6.835 6.835 0 0 1 2.03 2.32c.511.94.766 2.067.766 3.384 0 3.048-.714 5.303-2.142 6.768-1.427 1.465-3.628 2.197-6.602 2.197-1.257 0-2.422-.148-3.495-.444-1.072-.296-2-.758-2.785-1.387-.784-.628-1.398-1.442-1.842-2.44-.444-.999-.666-2.209-.666-3.629z" stroke="#DA333E" stroke-width="2.841"/><path d="M85.136 64.156c-.232-.455-.507-1.138-.823-2.048-.316-.91-.65-1.924-1.001-3.04a333.427 333.427 0 0 0-1.116-3.469 58.242 58.242 0 0 0-1.211-3.354 24.888 24.888 0 0 0-1.24-2.693c-.413-.755-.814-1.244-1.206-1.468-.377.433-.83 1.062-1.357 1.886a80.187 80.187 0 0 0-1.687 2.775 108.51 108.51 0 0 0-1.817 3.25 883.19 883.19 0 0 0-1.78 3.316 236.82 236.82 0 0 0-1.575 2.996c-.478.927-.873 1.675-1.185 2.244l-2.408-.464-6.562-23.8c-.087-.287-.05-.515.11-.683.162-.167.363-.282.604-.343.24-.062.499-.094.774-.098.276-.004.486.004.63.025.395.055.678.18.852.372.174.194.3.428.377.703.078.275.137.573.176.896.04.322.1.637.185.945.215.727.473 1.608.772 2.643.299 1.036.613 2.114.942 3.238.329 1.124.668 2.25 1.018 3.375.349 1.127.676 2.155.979 3.085.303.93.575 1.708.815 2.333.24.625.414 1.008.52 1.15a538.6 538.6 0 0 1 3.739-6.45 172.591 172.591 0 0 1 2.635-4.339 88.55 88.55 0 0 1 1.714-2.629c.425-.617.757-1.067.997-1.35.24-.284.412-.45.514-.499.102-.049.173-.07.215-.065.33.046.69.308 1.079.785.387.477.776 1.096 1.166 1.858.39.763.787 1.627 1.19 2.592.405.965.804 1.966 1.198 3.004.394 1.037.767 2.067 1.12 3.088.355 1.022.687 1.971.998 2.85.31.878.589 1.64.837 2.288.247.647.457 1.11.63 1.387a58.168 58.168 0 0 0 1.45-3.347c.488-1.22.967-2.496 1.438-3.824.47-1.329.93-2.686 1.377-4.07.447-1.386.879-2.736 1.295-4.05.417-1.317.804-2.578 1.163-3.785.359-1.207.692-2.307 1-3.299.642.09 1.13.221 1.466.395.335.174.564.385.688.635.123.25.179.532.167.847-.013.316-.043.65-.093 1.002.033-.08-.051.257-.252 1.01-.2.754-.495 1.801-.883 3.142-.388 1.34-.854 2.897-1.397 4.67a220.763 220.763 0 0 1-1.792 5.565 169.766 169.766 0 0 1-2.085 5.842 97.623 97.623 0 0 1-2.258 5.5c-.568.281-1.024.407-1.37.38a1.151 1.151 0 0 1-.828-.417c-.208-.25-.376-.597-.505-1.038a57.12 57.12 0 0 1-.4-1.45" fill="#FFCF3F"/><path d="M85.136 64.156c-.232-.455-.507-1.138-.823-2.048-.316-.91-.65-1.924-1.001-3.04a333.427 333.427 0 0 0-1.116-3.469 58.242 58.242 0 0 0-1.211-3.354 24.888 24.888 0 0 0-1.24-2.693c-.413-.755-.814-1.244-1.206-1.468-.377.433-.83 1.062-1.357 1.886a80.187 80.187 0 0 0-1.687 2.775 108.51 108.51 0 0 0-1.817 3.25 883.19 883.19 0 0 0-1.78 3.316 236.82 236.82 0 0 0-1.575 2.996c-.478.927-.873 1.675-1.185 2.244l-2.408-.464-6.562-23.8c-.087-.287-.05-.515.11-.683.162-.167.363-.282.604-.343.24-.062.499-.094.774-.098.276-.004.486.004.63.025.395.055.678.18.852.372.174.194.3.428.377.703.078.275.137.573.176.896.04.322.1.637.185.945.215.727.473 1.608.772 2.643.299 1.036.613 2.114.942 3.238.329 1.124.668 2.25 1.018 3.375.349 1.127.676 2.155.979 3.085.303.93.575 1.708.815 2.333.24.625.414 1.008.52 1.15a538.6 538.6 0 0 1 3.739-6.45 172.591 172.591 0 0 1 2.635-4.339 88.55 88.55 0 0 1 1.714-2.629c.425-.617.757-1.067.997-1.35.24-.284.412-.45.514-.499.102-.049.173-.07.215-.065.33.046.69.308 1.079.785.387.477.776 1.096 1.166 1.858.39.763.787 1.627 1.19 2.592.405.965.804 1.966 1.198 3.004.394 1.037.767 2.067 1.12 3.088.355 1.022.687 1.971.998 2.85.31.878.589 1.64.837 2.288.247.647.457 1.11.63 1.387a58.168 58.168 0 0 0 1.45-3.347c.488-1.22.967-2.496 1.438-3.824.47-1.329.93-2.686 1.377-4.07.447-1.386.879-2.736 1.295-4.05.417-1.317.804-2.578 1.163-3.785.359-1.207.692-2.307 1-3.299.642.09 1.13.221 1.466.395.335.174.564.385.688.635.123.25.179.532.167.847-.013.316-.043.65-.093 1.002.033-.08-.051.257-.252 1.01-.2.754-.495 1.801-.883 3.142-.388 1.34-.854 2.897-1.397 4.67a220.763 220.763 0 0 1-1.792 5.565 169.766 169.766 0 0 1-2.085 5.842 97.623 97.623 0 0 1-2.258 5.5c-.568.281-1.024.407-1.37.38a1.151 1.151 0 0 1-.828-.417c-.208-.25-.376-.597-.505-1.038a57.12 57.12 0 0 1-.4-1.45z" stroke="#FFCF3F" stroke-width="4.018"/><path d="M98.162 65.36c.247.164.527.358.84.584.313.226.593.473.84.744.248.271.417.552.509.844.09.292.038.585-.16.882-.64.536-1.288.844-1.945.924-.658.08-1.244.011-1.758-.206a2.803 2.803 0 0 1-1.218-.94c-.297-.41-.417-.819-.36-1.227.056-.407.34-.769.854-1.087.513-.318 1.313-.49 2.398-.518zm27.798-37.17c-.271.247-.741.835-1.408 1.761-.668.927-1.463 2.072-2.385 3.435a601.137 601.137 0 0 0-3.054 4.565 856.247 856.247 0 0 1-6.944 10.31 283.9 283.9 0 0 1-3.245 4.652c-1 1.4-1.891 2.597-2.674 3.59-.783.993-1.387 1.65-1.814 1.971l-3.114-2.064a211.359 211.359 0 0 1 5.243-7.543c1.807-2.484 3.62-4.963 5.44-7.439 1.819-2.475 3.636-4.96 5.452-7.457a214.226 214.226 0 0 0 5.303-7.636l3.2 1.855z" fill="#DA333E"/><path d="M98.162 65.36c.247.164.527.358.84.584.313.226.593.473.84.744.248.271.417.552.509.844.09.292.038.585-.16.882-.64.536-1.288.844-1.945.924-.658.08-1.244.011-1.758-.206a2.803 2.803 0 0 1-1.218-.94c-.297-.41-.417-.819-.36-1.227.056-.407.34-.769.854-1.087.513-.318 1.313-.49 2.398-.518zm27.798-37.17c-.271.247-.741.835-1.408 1.761-.668.927-1.463 2.072-2.385 3.435a601.137 601.137 0 0 0-3.054 4.565 856.247 856.247 0 0 1-6.944 10.31 283.9 283.9 0 0 1-3.245 4.652c-1 1.4-1.891 2.597-2.674 3.59-.783.993-1.387 1.65-1.814 1.971l-3.114-2.064a211.359 211.359 0 0 1 5.243-7.543c1.807-2.484 3.62-4.963 5.44-7.439 1.819-2.475 3.636-4.96 5.452-7.457a214.226 214.226 0 0 0 5.303-7.636l3.2 1.855z" stroke="#DA333E" stroke-width="4.744"/><path d="M12.218 26.917a6.083 6.083 0 1 1-12.166 0 6.083 6.083 0 0 1 12.166 0" fill="#186B92"/><g transform="translate(124 -.258)"><mask id="b" fill="#fff"><use xlink:href="#a"/></mask><path d="M7.051 3.342a3.083 3.083 0 1 1-6.167 0 3.083 3.083 0 0 1 6.167 0" fill="#186B92" mask="url(#b)"/></g><path d="M42.385 22.667s46.667 8.167 66.5-6c0 0 1.333-1.333 2-2.833.667-1.5.333-12.5-11.333-6.334-11.667 6.167-13.834 11.167-57.5 13-.167 1.334.333 2.167.333 2.167" fill="#FFCF3F"/></g></svg>