<svg id="Layer_1" xmlns="http://www.w3.org/2000/svg" viewBox="0 0 1920 1080"><style>.st0{fill:#ffcd54}.st1{fill:#005e79}.st2{fill:#e53041}</style><path class="st0" d="M992.4 427.6v-.7c0-2.5-2-4.4-4.4-4.4-2.5 0-4.4 2-4.4 4.4 0 .2 0 .5.1.7h-.1c-2.5 0-4.4 2-4.4 4.4 0 2.5 2 4.4 4.4 4.4h.1c-.1.3-.1.5-.1.8 0 2.5 2 4.4 4.4 4.4 2.5 0 4.4-2 4.4-4.4 0-.3 0-.5-.1-.8h.1c2.5 0 4.4-2 4.4-4.4-.1-2.4-2-4.4-4.4-4.4zm838.7 222.7v-.7c0-2.5-2-4.4-4.4-4.4s-4.4 2-4.4 4.4c0 .2 0 .5.1.7h-.1c-2.5 0-4.4 2-4.4 4.4 0 2.5 2 4.4 4.4 4.4h.1c-.1.3-.1.5-.1.8 0 2.5 2 4.4 4.4 4.4s4.4-2 4.4-4.4c0-.3 0-.5-.1-.8h.1c2.5 0 4.4-2 4.4-4.4-.1-2.4-2-4.4-4.4-4.4z"/><path class="st1" d="M1617.2 921.1v-.4c0-1.4-1.1-2.5-2.5-2.5s-2.5 1.1-2.5 2.5v.4c-1.4 0-2.5 1.1-2.5 2.5s1.1 2.5 2.5 2.5v.4c0 1.4 1.1 2.5 2.5 2.5s2.5-1.1 2.5-2.5v-.4c1.4 0 2.5-1.1 2.5-2.5-.1-1.4-1.2-2.5-2.5-2.5zm-545.3 88v-.9c0-3-2.4-5.4-5.4-5.4s-5.4 2.4-5.4 5.4c0 .3 0 .6.1.9h-.1c-3 0-5.4 2.4-5.4 5.4 0 3 2.4 5.4 5.4 5.4h.1c-.1.4-.1.6-.1 1 0 3 2.4 5.4 5.4 5.4s5.4-2.4 5.4-5.4c0-.4 0-.6-.1-1h.1c3 0 5.4-2.4 5.4-5.4-.1-3-2.4-5.4-5.4-5.4z"/><path class="st2" d="M1426.7 1045.9v-.6c0-2-1.6-3.6-3.6-3.6s-3.6 1.6-3.6 3.6c0 .2 0 .4.1.6h-.1c-2 0-3.6 1.6-3.6 3.6s1.6 3.6 3.6 3.6h.1c-.1.2-.1.4-.1.7 0 2 1.6 3.6 3.6 3.6s3.6-1.6 3.6-3.6c0-.2 0-.4-.1-.7h.1c2 0 3.6-1.6 3.6-3.6s-1.6-3.6-3.6-3.6zm-304.4-310.1v-.5c0-1.6-1.3-2.8-2.8-2.8s-2.8 1.3-2.8 2.8v.5c-1.6 0-2.8 1.3-2.8 2.8 0 1.6 1.3 2.8 2.8 2.8v.5c0 1.6 1.3 2.8 2.8 2.8s2.8-1.3 2.8-2.8v-.5c1.6 0 2.8-1.3 2.8-2.8 0-1.5-1.2-2.8-2.8-2.8zm25.7-483.3v-.4c0-1.2-.9-2.1-2.1-2.1-1.2 0-2.1.9-2.1 2.1v.4c-1.2 0-2.1.9-2.1 2.1 0 1.2.9 2.1 2.1 2.1v.4c0 1.2.9 2.1 2.1 2.1 1.2 0 2.1-.9 2.1-2.1v-.4c1.2 0 2.1-.9 2.1-2.1 0-1.2-1-2.1-2.1-2.1zm729-211.8v-.6c0-2-1.6-3.6-3.6-3.6s-3.6 1.6-3.6 3.6c0 .2 0 .4.1.6h-.1c-2 0-3.6 1.6-3.6 3.6s1.6 3.6 3.6 3.6h.1c-.1.2-.1.4-.1.7 0 2 1.6 3.6 3.6 3.6s3.6-1.6 3.6-3.6c0-.2 0-.4-.1-.7h.1c2 0 3.6-1.6 3.6-3.6s-1.6-3.6-3.6-3.6zM632.1 77.4v-.6c0-2-1.6-3.6-3.6-3.6s-3.6 1.6-3.6 3.6c0 .2 0 .4.1.6h-.1c-2 0-3.6 1.6-3.6 3.6s1.6 3.6 3.6 3.6h.1c-.1.2-.1.4-.1.7 0 2 1.6 3.6 3.6 3.6s3.6-1.6 3.6-3.6c0-.2 0-.4-.1-.7h.1c2 0 3.6-1.6 3.6-3.6-.1-2-1.7-3.6-3.6-3.6zM311.7 951.9v-1c0-3.5-2.8-6.3-6.3-6.3s-6.3 2.8-6.3 6.3c0 .3 0 .7.1 1h-.2c-3.5 0-6.3 2.8-6.3 6.3s2.8 6.3 6.3 6.3h.1c-.1.4-.1.7-.1 1.1 0 3.5 2.8 6.3 6.3 6.3s6.3-2.8 6.3-6.3c0-.4 0-.7-.1-1.1h.1c3.5 0 6.3-2.8 6.3-6.3s-2.8-6.3-6.2-6.3z"/><path class="st1" d="M247.5 729.4v-.4c0-1.5-1.2-2.7-2.7-2.7-1.5 0-2.7 1.2-2.7 2.7v.4c-1.5 0-2.7 1.2-2.7 2.7 0 1.5 1.2 2.7 2.7 2.7v.5c0 1.5 1.2 2.7 2.7 2.7 1.5 0 2.7-1.2 2.7-2.7v-.5c1.5 0 2.7-1.2 2.7-2.7-.1-1.5-1.3-2.7-2.7-2.7zm754.8-674.2v-.4c0-1.4-1.1-2.6-2.6-2.6-1.4 0-2.6 1.1-2.6 2.6v.4c-1.4 0-2.6 1.1-2.6 2.6s1.1 2.6 2.6 2.6v.5c0 1.4 1.1 2.6 2.6 2.6 1.4 0 2.6-1.1 2.6-2.6v-.5c1.4 0 2.6-1.1 2.6-2.6-.1-1.5-1.2-2.6-2.6-2.6zm557.1 82.5v-.4c0-1.4-1.1-2.5-2.5-2.5s-2.5 1.1-2.5 2.5v.4c-1.4 0-2.5 1.1-2.5 2.5s1.1 2.5 2.5 2.5v.5c0 1.4 1.1 2.5 2.5 2.5s2.5-1.1 2.5-2.5v-.5c1.4 0 2.5-1.1 2.5-2.5-.1-1.4-1.2-2.5-2.5-2.5zm-188.6 223.2v-.5c0-1.9-1.5-3.3-3.3-3.3s-3.3 1.5-3.3 3.3c0 .2 0 .4.1.5h-.1c-1.9 0-3.3 1.5-3.3 3.3s1.5 3.3 3.3 3.3h.1c-.1.2-.1.4-.1.6 0 1.9 1.5 3.3 3.3 3.3s3.3-1.5 3.3-3.3c0-.2 0-.4-.1-.6h.1c1.9 0 3.3-1.5 3.3-3.3 0-1.9-1.5-3.3-3.3-3.3zM573.3 935.4v-.5c0-1.6-1.3-2.9-2.9-2.9s-2.9 1.3-2.9 2.9v.5c-1.6 0-2.9 1.3-2.9 2.9s1.3 2.9 2.9 2.9v.5c0 1.6 1.3 2.9 2.9 2.9s2.9-1.3 2.9-2.9v-.5c1.6 0 2.9-1.3 2.9-2.9-.1-1.6-1.3-2.9-2.9-2.9z"/><path class="st0" d="M1744 1023.9v-.9c0-3-2.4-5.4-5.4-5.4-3 0-5.4 2.4-5.4 5.4 0 .3 0 .6.1.9h-.1c-3 0-5.4 2.4-5.4 5.4s2.4 5.4 5.4 5.4h.1c-.1.4-.1.6-.1 1 0 3 2.4 5.4 5.4 5.4 3 0 5.4-2.4 5.4-5.4 0-.4 0-.6-.1-1h.1c3 0 5.4-2.4 5.4-5.4-.2-3-2.5-5.4-5.4-5.4zm43.5-758.8v-.5c0-1.8-1.4-3.2-3.2-3.2s-3.2 1.4-3.2 3.2c0 .2 0 .4.1.5h-.1c-1.8 0-3.2 1.4-3.2 3.2s1.4 3.2 3.2 3.2h.1c-.1.2-.1.4-.1.6 0 1.8 1.4 3.2 3.2 3.2s3.2-1.4 3.2-3.2c0-.2 0-.4-.1-.6h.1c1.8 0 3.2-1.4 3.2-3.2 0-1.8-1.4-3.2-3.2-3.2zM254.4 97.1v-.7c0-2.5-2-4.4-4.4-4.4-2.5 0-4.4 2-4.4 4.4 0 .2 0 .5.1.7h-.1c-2.5 0-4.4 2-4.4 4.4 0 2.5 2 4.4 4.4 4.4h.1c-.1.3-.1.5-.1.8 0 2.5 2 4.4 4.4 4.4 2.5 0 4.4-2 4.4-4.4 0-.3 0-.5-.1-.8h.1c2.5 0 4.4-2 4.4-4.4-.1-2.5-2-4.4-4.4-4.4zm635.4 729.6v-.5c0-1.7-1.3-3-3-3s-3 1.3-3 3v.5c-1.7 0-3 1.3-3 3s1.3 3 3 3v.5c0 1.7 1.3 3 3 3s3-1.3 3-3v-.5c1.7 0 3-1.3 3-3-.1-1.7-1.4-3-3-3zM432.9 548.1v-.7c0-2.5-2-4.4-4.4-4.4-2.5 0-4.4 2-4.4 4.4 0 .2 0 .5.1.7h-.1c-2.5 0-4.4 2-4.4 4.4 0 2.5 2 4.4 4.4 4.4h.1c-.1.3-.1.5-.1.8 0 2.5 2 4.4 4.4 4.4 2.5 0 4.4-2 4.4-4.4 0-.3 0-.5-.1-.8h.1c2.5 0 4.4-2 4.4-4.4-.1-2.4-2-4.4-4.4-4.4z"/></svg>